<?xml version="1.0" encoding="utf-8"?>
<!-- Generator: Adobe Illustrator 28.1.0, SVG Export Plug-In . SVG Version: 6.00 Build 0)  -->
<svg version="1.1" id="Layer_1" xmlns="http://www.w3.org/2000/svg" xmlns:xlink="http://www.w3.org/1999/xlink" x="0px" y="0px"
	 viewBox="0 0 252 72" style="enable-background:new 0 0 252 72;" xml:space="preserve">
<path d="M80.3,44.4l6.2-7.5L80.7,30c-0.5-0.7-0.8-1.2-0.8-1.9c0-1.4,1.1-2.3,2.3-2.3c1,0,1.7,0.5,2.3,1.2l5,6.5l5-6.5
	c0.6-0.7,1.3-1.3,2.2-1.3c1.3,0,2.4,1,2.4,2.2c0,0.7-0.3,1.2-0.7,1.7l-5.9,7.1l6.2,7.3c0.5,0.7,0.8,1.2,0.8,1.9
	c0,1.4-1.1,2.3-2.3,2.3c-1,0-1.7-0.5-2.3-1.3L89.6,40l-5.3,6.9c-0.6,0.7-1.3,1.3-2.2,1.3c-1.3,0-2.3-1-2.3-2.2
	C79.6,45.4,79.8,44.9,80.3,44.4L80.3,44.4z"/>
<path d="M104.8,28.4c0-1.4,1.1-2.5,2.5-2.5s2.5,1.1,2.5,2.5v2.3c1.2-2.7,3.3-4.8,5.5-4.8c1.6,0,2.5,1,2.5,2.5c0,1.3-0.9,2.2-2,2.4
	c-3.6,0.6-6,3.4-6,8.6v6.5c0,1.4-1.1,2.5-2.5,2.5s-2.5-1.1-2.5-2.5V28.4z"/>
<path d="M122.2,28.4c0-1.4,1.1-2.5,2.5-2.5s2.5,1.1,2.5,2.5v1.4c1.6-2.3,3.9-4.1,7.5-4.1c5.2,0,10.2,4.1,10.2,11.4v0.1
	c0,7.3-5,11.4-10.2,11.4c-3.7,0-5.9-1.8-7.5-3.9v7.8c0,1.4-1.1,2.5-2.5,2.5s-2.5-1.1-2.5-2.5V28.4z M139.8,37.1
	c0-4.3-2.9-7.1-6.3-7.1s-6.4,2.8-6.4,7v0.1c0,4.2,3,7,6.4,7C136.9,44.2,139.8,41.5,139.8,37.1z"/>
<path d="M152.3,42.1c1.7,0,2.9,1.2,2.9,2.9v0.4c0,1.6-1.2,2.9-2.9,2.9s-3-1.2-3-2.9V45C149.4,43.4,150.6,42.1,152.3,42.1z"/>
<path d="M159.2,37.2c0-6.3,4.8-11.6,11.4-11.6c3.5,0,5.8,1.1,7.7,2.7c0.3,0.3,0.8,0.9,0.8,1.7c0,1.3-1,2.3-2.3,2.3
	c-0.6,0-1.2-0.3-1.5-0.5c-1.3-1.1-2.7-1.9-4.7-1.9c-3.7,0-6.4,3.2-6.4,7V37c0,3.9,2.7,7,6.6,7c2,0,3.5-0.8,4.9-2
	c0.3-0.3,0.8-0.5,1.4-0.5c1.2,0,2.2,1,2.2,2.2c0,0.7-0.3,1.2-0.7,1.6c-2,1.9-4.3,3.1-8,3.1C164.1,48.6,159.2,43.5,159.2,37.2z"/>
<path d="M183,41.8c0-4.8,3.7-7.2,9.1-7.2c2.5,0,4.2,0.4,5.9,0.9V35c0-3.1-1.9-4.8-5.4-4.8c-1.9,0-3.5,0.3-4.9,0.9
	c-0.3,0.1-0.5,0.1-0.8,0.1c-1.2,0-2.1-0.9-2.1-2.1c0-0.9,0.6-1.7,1.4-2c2.1-0.8,4.2-1.3,7.1-1.3c3.3,0,5.7,0.9,7.3,2.5
	s2.4,3.9,2.4,6.8v10.8c0,1.4-1.1,2.4-2.5,2.4c-1.5,0-2.5-1-2.5-2.1v-0.8c-1.5,1.8-3.8,3.2-7.2,3.2C186.6,48.5,183,46.2,183,41.8z
	 M198,40.2v-1.5c-1.3-0.5-3-0.9-5-0.9c-3.2,0-5.2,1.4-5.2,3.7v0.1c0,2.1,1.9,3.3,4.3,3.3C195.5,44.9,198,43,198,40.2z"/>
<path d="M210.2,30.4h-0.9c-1.2,0-2.1-0.9-2.1-2.1s1-2.1,2.1-2.1h0.9v-1.6c0-2.4,0.6-4.2,1.8-5.4s2.8-1.7,5-1.7c1,0,1.8,0.1,2.5,0.2
	c0.9,0.1,1.7,1,1.7,2.1s-1,2.1-2.1,2.1c-0.3,0-0.7-0.1-1-0.1c-1.9,0-2.9,1-2.9,3.3v1.2h3.9c1.2,0,2.1,0.9,2.1,2.1s-1,2.1-2.1,2.1
	h-3.8v15.4c0,1.4-1.1,2.5-2.5,2.5s-2.5-1.1-2.5-2.5L210.2,30.4z"/>
<path d="M234.5,48.6c-6.4,0-11.3-4.6-11.3-11.4v-0.1c0-6.3,4.5-11.4,10.7-11.4c7,0,10.4,5.7,10.4,10.8c0,1.4-1.1,2.4-2.4,2.4h-13.8
	c0.5,3.6,3.1,5.6,6.3,5.6c2.1,0,3.8-0.7,5.2-1.9c0.4-0.3,0.7-0.5,1.3-0.5c1.1,0,2,0.9,2,2c0,0.6-0.3,1.2-0.7,1.5
	C240.5,47.5,238,48.6,234.5,48.6z M239.5,35.6c-0.3-3.2-2.3-5.8-5.6-5.8c-3.1,0-5.2,2.4-5.7,5.8H239.5z"/>
<path d="M62.6,36.4c0-5.6-3.8-10.3-9-11.7v-5.2v-0.1v-0.1c0-0.1,0-0.1,0-0.2c-0.2-2.5-3.6-3.5-6.6-4.2c-3.4-0.7-7.9-1.1-12.7-1.1
	s-9.3,0.4-12.7,1.1c-3,0.6-6.4,1.6-6.6,4.2v0.2v0.1v0.1v31.7c0,0.5,0.1,0.9,0.3,1.4c1.8,4.2,11.4,5.7,19.1,5.7s17.2-1.5,19.1-5.7
	c0.2-0.4,0.3-0.9,0.3-1.4V48C58.8,46.7,62.6,42,62.6,36.4z M20.8,19.3c2.5-0.7,7.1-1.4,13.5-1.4s11,0.7,13.5,1.4
	c0.3,0.1,0.6,0.2,0.9,0.3c-2.3,0.8-7.1,1.6-14.3,1.6s-12.1-0.9-14.3-1.6C20.2,19.4,20.5,19.3,20.8,19.3z M49.7,51.2
	c-0.6,1.2-6.3,3.3-15.5,3.3s-14.9-2.2-15.5-3.3v-28c0.9,0.3,1.9,0.5,2.8,0.7c3.4,0.7,7.9,1.1,12.7,1.1s9.3-0.4,12.7-1.1
	c0.9-0.2,1.9-0.4,2.8-0.7V51.2z M53.6,44V28.8c3,1.2,5.1,4.2,5.1,7.6C58.7,39.9,56.6,42.8,53.6,44z"/>
<circle cx="35.2" cy="32.8" r="2.3"/>
<circle cx="10" cy="29.7" r="2.3"/>
<path d="M27.6,40.9c-0.8,0-1.4,0.6-1.4,1.4s-0.7,1.5-1.5,1.5s-1.5-0.7-1.5-1.5s-0.6-1.4-1.4-1.4s-1.4,0.6-1.4,1.4
	c0,2.3,1.9,4.2,4.2,4.2s4.2-1.9,4.2-4.2C28.9,41.5,28.3,40.9,27.6,40.9z"/>
</svg>
