<?xml version="1.0" encoding="UTF-8"?>
<svg id="_レイヤー_1" data-name="レイヤー 1" xmlns="http://www.w3.org/2000/svg" viewBox="0 0 565.93 62.31">
  <defs>
    <style>
      .cls-1 {
        fill: none;
      }

      .cls-2 {
        fill: #fff;
      }
    </style>
  </defs>
  <rect class="cls-1" width="565.93" height="62.31"/>
  <g>
    <path class="cls-2" d="M290.28,3.28v10.17h-17.08v47.27h-12V13.45h-17.15V3.28h46.24,0Z"/>
    <path class="cls-2" d="M319.53,62.31c-8.16,0-14.39-2.23-18.7-6.7-5.78-5.48-8.68-13.38-8.68-23.69s2.89-18.42,8.68-23.69c4.31-4.47,10.55-6.7,18.7-6.7s14.4,2.23,18.7,6.7c5.76,5.27,8.64,13.17,8.64,23.69s-2.88,18.21-8.64,23.69c-4.31,4.47-10.55,6.7-18.7,6.7ZM330.8,46.88c2.76-3.51,4.14-8.5,4.14-14.96s-1.39-11.42-4.16-14.95c-2.78-3.52-6.52-5.28-11.25-5.28s-8.5,1.75-11.31,5.26c-2.82,3.51-4.22,8.5-4.22,14.97s1.4,11.46,4.22,14.96c2.81,3.51,6.58,5.26,11.31,5.26s8.48-1.75,11.27-5.26Z"/>
    <path class="cls-2" d="M404.96,60.71h-15.34l-17.62-25.1-5.69,5.88v19.21h-11.73V3.28h11.73v23.65l22.03-23.65h15.41l-23.39,23.65,24.59,33.78h0Z"/>
    <path class="cls-2" d="M456.16,3.28l-19.1,35.85v21.59h-11.93v-21.59l-19.75-35.85h14.06l11.85,25.02,11.35-25.02h13.52Z"/>
    <path class="cls-2" d="M486.64,62.31c-8.16,0-14.4-2.23-18.7-6.7-5.78-5.48-8.68-13.38-8.68-23.69s2.89-18.42,8.68-23.69c4.31-4.47,10.55-6.7,18.7-6.7s14.39,2.23,18.7,6.7c5.76,5.27,8.64,13.17,8.64,23.69s-2.88,18.21-8.64,23.69c-4.31,4.47-10.55,6.7-18.7,6.7ZM497.91,46.88c2.77-3.51,4.15-8.5,4.15-14.96s-1.39-11.42-4.17-14.95c-2.78-3.52-6.52-5.28-11.25-5.28s-8.5,1.75-11.31,5.26c-2.82,3.51-4.22,8.5-4.22,14.97s1.4,11.46,4.22,14.96c2.81,3.51,6.58,5.26,11.31,5.26s8.48-1.75,11.27-5.26Z"/>
    <path class="cls-2" d="M532.21,11.59l-3.22-.96,3.82-10.63,2.06.58-2.66,11h0Z"/>
    <path class="cls-2" d="M541.43,11.63h-3.96l-.04-1.19c0-3.29.49-5.61,1.48-6.95,1-1.36,2.67-2.03,5.01-2.03,4.42,0,6.62,2.46,6.62,7.39,0,3.32-1.65,8.11-4.95,14.36l-2.39,4.51s-.05.1-.12.23c-.06.13-.15.32-.27.56h7.42v3.48h-13.16c.22-.49.68-1.48,1.38-2.95.7-1.47,1.65-3.46,2.86-5.96,1.03-2.19,1.88-4.04,2.57-5.57.68-1.52,1.2-2.78,1.55-3.75.7-1.95,1.05-3.64,1.05-5.06,0-2.5-.86-3.75-2.59-3.75s-2.49,1.55-2.49,4.65l.02,1.72.02.31h0Z"/>
    <path class="cls-2" d="M559.11,1.82h4.29l-2.82,5.81c-.49,1.06-.99,2.17-1.48,3.36-.5,1.19-1.02,2.45-1.56,3.79,1.13-.9,2.21-1.35,3.24-1.35,1.67,0,2.96.73,3.86,2.19.86,1.37,1.28,3.81,1.28,7.35,0,3.33-.5,5.74-1.5,7.21-1,1.45-2.62,2.17-4.87,2.17s-3.97-.8-4.99-2.41c-1.03-1.61-1.53-4.25-1.53-7.89,0-3.06.4-5.98,1.2-8.76.41-1.38,1.03-3.01,1.84-4.88.8-1.88,1.82-4.07,3.04-6.58h0ZM562.06,22.94c0-1.04-.04-1.93-.14-2.67-.09-.73-.24-1.34-.44-1.8-.21-.46-.47-.8-.79-1.02-.32-.21-.7-.32-1.15-.32s-.84.11-1.15.32c-.32.22-.58.55-.79,1.01-.21.45-.35,1.05-.45,1.79-.09.73-.13,1.62-.13,2.65,0,3.94.84,5.92,2.53,5.92s2.53-1.96,2.53-5.88h-.01Z"/>
    <path class="cls-2" d="M59.28,1.56h10.02l-20.93,21.28c-7.56,7.72-19.84,7.72-27.4,0L.11,1.56h10.02l15.89,16.15c4.71,4.79,12.44,4.85,17.21.16.05-.06.11-.11.16-.16L59.28,1.56ZM10.08,60.71H0l21.04-21.39c7.56-7.72,19.84-7.72,27.4,0l21.04,21.39h-10.02l-16-16.26c-4.71-4.79-12.44-4.85-17.21-.16-.05.06-.11.11-.16.16l-16,16.26h0Z"/>
    <path class="cls-2" d="M191.67,1.56c2.57.05,4.98.55,7.23,1.54,2.3.88,4.28,2.15,5.97,3.8,1.7,1.6,3.07,3.53,4.06,5.68.99,2.15,1.48,4.41,1.48,6.84s-.49,4.79-1.53,7c-.99,2.15-2.35,4.02-4.11,5.68-1.69,1.6-3.78,2.87-6.08,3.86-2.3.93-4.76,1.38-7.39,1.38h-21.92v23.16h-7.72V1.56h30.03,0ZM191.23,30.23c1.53,0,3.01-.27,4.38-.82,1.42-.55,2.63-1.32,3.67-2.32,1.04-.99,1.86-2.15,2.46-3.42.6-1.32.88-2.7.88-4.19s-.27-2.81-.88-4.13c-.6-1.32-1.42-2.48-2.46-3.42-1.04-.99-2.24-1.76-3.67-2.32-1.37-.55-2.85-.82-4.38-.82h-21.92v21.5h21.92v-.06h0Z"/>
    <path class="cls-2" d="M105.59,37.51c3.89,0,7.5,1.65,9.97,4.46l15.94,18.58h9.91l-21.81-25.74c-2.41-2.87-6.08-4.52-10.03-4.52h-15.07V8.83h21.92c1.53,0,3.01.27,4.38.82,1.43.55,2.63,1.32,3.67,2.32,1.04.93,1.86,2.04,2.46,3.36.6,1.32.88,2.7.88,4.19s-.33,2.87-.88,4.19c-.38.77-.82,1.49-1.32,2.15l5.04,5.62c.06-.06.11-.16.16-.22,1.48-1.6,2.63-3.42,3.45-5.4.88-1.98,1.32-4.13,1.32-6.39,0-2.43-.49-4.68-1.48-6.84-.99-2.21-2.3-4.08-4.05-5.73-1.7-1.6-3.73-2.87-5.97-3.86-2.24-.99-4.65-1.48-7.23-1.54h-26.19c-1.04,0-1.97.38-2.74,1.1-.71.66-1.1,1.54-1.1,2.48v55.3h7.72v-22.99h11.01v.11h.01Z"/>
  </g>
</svg>