<?xml version="1.0" encoding="UTF-8"?>
<svg id="_レイヤー_1" data-name="レイヤー 1" xmlns="http://www.w3.org/2000/svg" viewBox="0 0 566.46 62.53">
  <defs>
    <style>
      .cls-1 {
        fill: none;
      }
    </style>
  </defs>
  <rect class="cls-1" x=".46" width="566" height="62"/>
  <g>
    <path d="M290.46,4v10h-17v47h-12V14h-17V4h46.01,0Z"/>
    <path d="M319.53,62.53c-8.16,0-14.39-2.23-18.7-6.7-5.78-5.48-8.68-13.38-8.68-23.69s2.89-18.42,8.68-23.69c4.31-4.47,10.55-6.7,18.7-6.7s14.4,2.23,18.7,6.7c5.76,5.27,8.64,13.17,8.64,23.69s-2.88,18.21-8.64,23.69c-4.31,4.47-10.55,6.7-18.7,6.7ZM330.8,47.1c2.76-3.51,4.14-8.5,4.14-14.96s-1.39-11.42-4.16-14.95c-2.78-3.52-6.52-5.28-11.25-5.28s-8.5,1.75-11.31,5.26c-2.82,3.51-4.22,8.5-4.22,14.97s1.4,11.46,4.22,14.96c2.81,3.51,6.58,5.26,11.31,5.26s8.48-1.75,11.27-5.26Z"/>
    <path d="M405.99,61h-15.68l-18.02-24.91-5.82,5.84v19.07h-12V4h12v23.47l22.54-23.47h15.76l-23.92,23.47,25.15,33.53h0Z"/>
    <path d="M456.68,4l-19.21,35.58v21.42h-12v-21.42l-19.88-35.58h14.15l11.92,24.83,11.42-24.83h13.6Z"/>
    <path d="M486.64,62.53c-8.16,0-14.4-2.23-18.7-6.7-5.78-5.48-8.68-13.38-8.68-23.69s2.89-18.42,8.68-23.69c4.31-4.47,10.55-6.7,18.7-6.7s14.39,2.23,18.7,6.7c5.76,5.27,8.64,13.17,8.64,23.69s-2.88,18.21-8.64,23.69c-4.31,4.47-10.55,6.7-18.7,6.7ZM497.91,47.1c2.77-3.51,4.15-8.5,4.15-14.96s-1.39-11.42-4.17-14.95c-2.78-3.52-6.52-5.28-11.25-5.28s-8.5,1.75-11.31,5.26c-2.82,3.51-4.22,8.5-4.22,14.97s1.4,11.46,4.22,14.96c2.81,3.51,6.58,5.26,11.31,5.26s8.48-1.75,11.27-5.26Z"/>
    <path d="M532.21,11.81l-3.22-.96,3.82-10.63,2.06.58-2.66,11h0Z"/>
    <path d="M541.46,12h-3.99l-.04-1.34c0-3.29.49-5.61,1.48-6.95,1-1.36,2.67-2.03,5.01-2.03,4.42,0,6.62,2.46,6.62,7.39,0,3.32-1.65,8.11-4.95,14.36l-2.39,4.51s-.05.1-.12.23c-.06.13-.27.83-.27.83h7.65v3h-13.4c.22-.28.68-1.27,1.38-2.74.7-1.47,1.65-3.46,2.86-5.96,1.03-2.19,1.88-4.04,2.57-5.57.68-1.52,1.2-2.78,1.55-3.75.7-1.95,1.05-3.64,1.05-5.06,0-2.5-.86-3.75-2.59-3.75s-3.42,4.65-3.42,4.65v1.72l1,.31v.14Z"/>
    <path d="M559.11,2h4.29l-2.82,5.81c-.49,1.06-.99,2.17-1.48,3.36-.5,1.19-1.02,2.45-1.56,3.79,1.13-.9,2.21-1.35,3.24-1.35,1.67,0,2.96.73,3.86,2.19.86,1.37,1.28,3.81,1.28,7.35,0,3.33-.5,5.74-1.5,7.21-1,1.45-2.62,2.17-4.87,2.17s-3.97-.8-4.99-2.41c-1.03-1.61-1.53-4.25-1.53-7.89,0-3.06.4-5.98,1.2-8.76.41-1.38,1.03-3.01,1.84-4.88.8-1.88,1.82-4.07,3.04-6.58h0ZM562.06,23c0-1.04-.04-1.93-.14-2.67-.09-.73-.24-1.34-.44-1.8-.21-.46-.47-.8-.79-1.02-.32-.21-.7-.32-1.15-.32s-.84.11-1.15.32c-.32.22-.58.55-.79,1.01-.21.45-.35,1.05-.45,1.79-.09.73-.13,1.62-.13,2.65,0,3.94.84,5.92,2.53,5.92s2.53-1.96,2.53-5.88h-.01Z"/>
    <path d="M59.28,2h10.02l-20.93,21.28c-7.56,7.72-19.84,7.72-27.4,0L.11,2h10.02l15.89,16.15c4.71,4.79,12.44,4.85,17.21.16.05-.06.11-.11.16-.16L59.28,2ZM10.08,61H0l21.04-21.39c7.56-7.72,19.84-7.72,27.4,0l21.04,21.39h-10.02l-16-16.26c-4.71-4.79-12.44-4.85-17.21-.16-.05.06-.11.11-.16.16l-16,16.26h0Z"/>
    <path d="M191.68,2c2.59.05,5.02.56,7.28,1.55,2.32.89,4.3,2.16,6.01,3.83,1.71,1.61,3.09,3.55,4.08,5.71.99,2.16,1.49,4.44,1.49,6.88s-.49,4.82-1.54,7.04c-.99,2.16-2.37,4.05-4.13,5.71-1.71,1.61-3.8,2.89-6.12,3.88-2.32.94-4.8,1.38-7.44,1.38h-21.84v23h-8V2h30.22,0ZM191.46,30.93c1.54,0,3.02-.28,4.4-.84,1.43-.56,2.64-1.35,3.68-2.37,1.04-1.01,1.87-2.2,2.47-3.5.6-1.35.88-2.76.88-4.29s-.27-2.87-.88-4.23c-.6-1.35-1.43-2.54-2.47-3.5-1.04-1.01-2.25-1.8-3.68-2.37-1.37-.56-2.86-.84-4.4-.84h-22v22h22v-.06h0Z"/>
    <path d="M105.48,38.12c3.88,0,7.5,1.64,9.96,4.43l15.93,18.45h9.58l-21.62-25.52c-2.39-2.84-6.03-4.48-9.94-4.48h-14.93V9h20.9c1.46,0,2.87.26,4.18.79,1.36.53,2.51,1.26,3.5,2.21.99.89,1.78,1.94,2.35,3.2.57,1.26.84,2.57.84,3.99s-.31,2.73-.84,3.99c-.36.74-.78,1.42-1.25,2.05l4.81,5.36c.06-.06.1-.15.15-.21,1.41-1.52,2.51-3.26,3.29-5.15.84-1.89,1.25-3.94,1.25-6.1,0-2.31-.47-4.47-1.41-6.52-.94-2.1-2.19-3.89-3.87-5.47-1.62-1.52-3.55-2.73-5.69-3.68-2.14-.95-4.44-1.42-6.9-1.47h-25.33c-1.08,0-2.04.38-2.84,1.11-.73.66-1.14,1.55-1.14,2.48v55.41h8v-23h11v.11h.01Z"/>
  </g>
</svg>