<?xml version="1.0" encoding="UTF-8"?>
<svg id="_レイヤー_1" data-name="レイヤー 1" xmlns="http://www.w3.org/2000/svg" xmlns:xlink="http://www.w3.org/1999/xlink" viewBox="0 0 1201.09 631">
  <defs>
    <style>
      .cls-1 {
        fill: none;
      }

      .cls-2 {
        fill: #fff;
      }

      .cls-3 {
        fill: #232730;
        opacity: .7;
      }

      .cls-4 {
        clip-path: url(#clippath);
      }

      .cls-5 {
        fill: #040000;
        stroke: #000;
        stroke-miterlimit: 10;
      }
    </style>
    <clipPath id="clippath">
      <rect class="cls-1" x="186.3" y="269.89" width="828.59" height="91.23"/>
    </clipPath>
  </defs>
  <rect class="cls-5" x=".59" y=".5" width="1200" height="630"/>
  <path class="cls-3" d="M631.35.5h106.76l-222.92,226.65c-80.53,82.2-211.25,82.2-291.78,0L1.17.5h106.76l169.23,172.01c50.19,51.05,132.43,51.67,183.24,1.73.55-.62,1.17-1.17,1.72-1.73L631.35.5ZM107.37,630.5H0l224.09-227.82c80.53-82.2,211.25-82.2,291.78,0l224.09,227.82h-106.76l-170.4-173.18c-50.19-51.05-132.43-51.67-183.24-1.73-.55.62-1.17,1.17-1.72,1.73l-170.4,173.18h-.07Z"/>
  <g class="cls-4">
    <g>
      <path class="cls-2" d="M611.31,274.69v14.89h-25v69.2h-17.57v-69.21h-25.12v-14.88h67.7-.01Z"/>
      <path class="cls-2" d="M654.12,361.11c-11.95,0-21.08-3.27-27.38-9.81-8.47-8.02-12.7-19.58-12.7-34.68s4.23-26.96,12.7-34.68c6.31-6.54,15.44-9.81,27.38-9.81s21.08,3.27,27.38,9.81c8.43,7.72,12.65,19.28,12.65,34.68s-4.22,26.66-12.65,34.68c-6.31,6.54-15.44,9.81-27.38,9.81ZM670.62,338.53c4.05-5.14,6.07-12.44,6.07-21.91s-2.03-16.72-6.1-21.88c-4.07-5.16-9.55-7.73-16.47-7.73s-12.44,2.57-16.55,7.7c-4.13,5.14-6.18,12.44-6.18,21.91s2.06,16.77,6.18,21.91c4.11,5.14,9.64,7.7,16.55,7.7s12.42-2.57,16.5-7.7Z"/>
      <path class="cls-2" d="M779.2,358.78h-22.45l-25.8-36.74-8.33,8.61v28.13h-17.18v-84.09h17.18v34.63l32.26-34.63h22.57l-34.24,34.63,36.01,49.46h-.01Z"/>
      <path class="cls-2" d="M854.17,274.69l-27.96,52.49v31.61h-17.46v-31.61l-28.92-52.49h20.59l17.35,36.63,16.61-36.63h19.79Z"/>
      <path class="cls-2" d="M898.79,361.11c-11.95,0-21.08-3.27-27.38-9.81-8.47-8.02-12.7-19.58-12.7-34.68s4.23-26.96,12.7-34.68c6.31-6.54,15.44-9.81,27.38-9.81s21.08,3.27,27.38,9.81c8.43,7.72,12.65,19.28,12.65,34.68s-4.22,26.66-12.65,34.68c-6.31,6.54-15.44,9.81-27.38,9.81ZM915.29,338.53c4.05-5.14,6.07-12.44,6.07-21.91s-2.03-16.72-6.1-21.88c-4.07-5.16-9.55-7.73-16.47-7.73s-12.44,2.57-16.56,7.7c-4.12,5.14-6.18,12.44-6.18,21.91s2.06,16.77,6.18,21.91c4.12,5.14,9.64,7.7,16.56,7.7s12.42-2.57,16.5-7.7Z"/>
      <path class="cls-2" d="M965.52,286.86l-4.72-1.41,5.6-15.57,3.01.86-3.9,16.11h.01Z"/>
      <path class="cls-2" d="M979.02,286.92h-5.8l-.06-1.75c0-4.82.72-8.22,2.16-10.18,1.46-1.98,3.91-2.97,7.33-2.97,6.47,0,9.69,3.6,9.69,10.82,0,4.86-2.42,11.87-7.25,21.03l-3.5,6.61s-.07.15-.17.34c-.09.19-.23.46-.4.83h10.86v5.09h-19.27c.32-.72.99-2.17,2.02-4.32,1.02-2.16,2.42-5.06,4.18-8.73,1.5-3.2,2.75-5.92,3.76-8.15,1-2.23,1.76-4.06,2.27-5.49,1.02-2.86,1.54-5.33,1.54-7.41,0-3.67-1.27-5.49-3.78-5.49s-3.64,2.27-3.64,6.81l.03,2.52.03.46h0Z"/>
      <path class="cls-2" d="M1004.9,272.56h6.29l-4.12,8.5c-.72,1.55-1.44,3.18-2.17,4.92-.73,1.74-1.49,3.59-2.28,5.55,1.65-1.32,3.23-1.98,4.75-1.98,2.44,0,4.33,1.06,5.65,3.2,1.26,2,1.88,5.58,1.88,10.76,0,4.88-.73,8.41-2.19,10.56-1.46,2.12-3.84,3.17-7.13,3.17s-5.81-1.17-7.31-3.52c-1.5-2.36-2.25-6.22-2.25-11.56,0-4.48.58-8.76,1.76-12.82.6-2.02,1.5-4.41,2.69-7.15,1.18-2.75,2.67-5.96,4.45-9.64h0ZM1009.22,303.48c0-1.53-.07-2.83-.2-3.9-.13-1.07-.35-1.96-.65-2.63-.3-.67-.69-1.18-1.15-1.49-.46-.31-1.03-.47-1.69-.47s-1.23.16-1.69.47c-.46.31-.85.81-1.15,1.47-.3.66-.52,1.54-.65,2.62-.13,1.07-.2,2.37-.2,3.88,0,5.77,1.23,8.67,3.7,8.67s3.7-2.87,3.7-8.61h-.02Z"/>
      <path class="cls-2" d="M273.09,272.16h14.68l-30.65,31.16c-11.07,11.3-29.04,11.3-40.11,0l-30.55-31.16h14.68l23.27,23.65c6.9,7.02,18.21,7.1,25.19.24.08-.08.16-.16.24-.24l23.27-23.65ZM201.06,358.78h-14.76l30.81-31.32c11.07-11.3,29.04-11.3,40.11,0l30.81,31.32h-14.68l-23.43-23.81c-6.9-7.02-18.21-7.1-25.19-.24-.08.08-.16.16-.24.24l-23.43,23.81h0Z"/>
      <path class="cls-2" d="M466.92,272.17c3.77.08,7.3.81,10.59,2.26,3.37,1.29,6.26,3.14,8.74,5.57,2.48,2.34,4.49,5.17,5.94,8.31,1.44,3.14,2.16,6.46,2.16,10.01s-.72,7.02-2.25,10.25c-1.44,3.14-3.45,5.89-6.01,8.31-2.48,2.34-5.53,4.2-8.9,5.65-3.37,1.37-6.98,2.01-10.83,2.01h-32.09v33.9h-11.31v-86.27h43.97-.01ZM466.28,314.14c2.25,0,4.41-.4,6.42-1.21,2.08-.81,3.85-1.94,5.37-3.39,1.52-1.45,2.73-3.14,3.6-5,.88-1.94,1.28-3.95,1.28-6.13s-.4-4.11-1.28-6.05c-.88-1.94-2.08-3.63-3.6-5.01-1.52-1.45-3.29-2.58-5.37-3.39-2-.81-4.17-1.21-6.42-1.21h-32.09v31.48h32.09v-.09h0Z"/>
      <path class="cls-2" d="M340.89,324.8c5.69,0,10.99,2.42,14.6,6.53l23.34,27.2h14.52l-31.93-37.69c-3.53-4.2-8.9-6.62-14.68-6.62h-22.06v-31.4h32.09c2.25,0,4.41.4,6.42,1.21,2.09.81,3.85,1.94,5.37,3.39,1.52,1.37,2.73,2.98,3.61,4.92.88,1.94,1.28,3.95,1.28,6.13s-.48,4.2-1.28,6.13c-.56,1.13-1.2,2.18-1.93,3.14l7.38,8.23c.08-.08.16-.24.24-.32,2.16-2.34,3.85-5.01,5.05-7.91,1.28-2.9,1.93-6.05,1.93-9.36,0-3.55-.72-6.86-2.16-10.01-1.45-3.23-3.37-5.97-5.94-8.4-2.48-2.34-5.46-4.2-8.74-5.65-3.28-1.45-6.81-2.17-10.59-2.26h-38.35c-1.52,0-2.89.56-4.01,1.61-1.04.97-1.6,2.26-1.6,3.63v80.96h11.31v-33.66h16.12v.16l.02.02Z"/>
    </g>
  </g>
</svg>