<svg width="578" height="236" viewBox="0 0 578 236" fill="none" xmlns="http://www.w3.org/2000/svg">
<path d="M183 44.5V34.2231L196.404 17.0538C198.319 14.7769 199.369 13.3615 201.037 11.4538C200.975 11.3923 200.975 11.3923 200.975 11.3308C198.195 11.5154 196.589 11.4538 193.501 11.4538H183.618V0.5H219.073V10.9L206.72 27.0231C204.558 29.6692 203.26 31.4538 201.346 33.6077C201.346 33.6692 201.346 33.6692 201.407 33.7308C204.311 33.5462 205.669 33.6077 208.82 33.6077H220V44.5H183Z" fill="#6268FF"/>
<path d="M124 44.5V0.5H146.598L148.635 10.5923C149.808 16.0692 151.166 25.0538 151.969 30.0385H152.154C152.772 26.0385 154.13 16.8077 155.488 10.3462L157.402 0.5H180V44.5H165.923V28.3154C165.923 22.4077 165.985 17.5462 166.232 12.1308H165.985C164.997 16.8077 164.256 21.7923 162.836 27.2077L158.946 44.5H144.931L140.979 27.2692C139.497 21.3 138.633 16.3154 137.83 12.1308H137.583C137.83 17.5462 137.892 22.1615 137.892 28.1308V44.5H124Z" fill="#6268FF"/>
<path d="M88.0532 44.5H74C78.0152 33.0538 84.038 16.3154 89.9392 0.5H106.243C111.354 15.0231 116.89 30.4077 122 44.5H107.582L104.54 35.7615H90.9734L88.0532 44.5ZM94.076 25.0538H101.498C100.342 21.3 98.8821 16.9923 97.8479 12.5615H97.6654C96.7528 16.7462 95.2319 21.1769 94.076 25.0538Z" fill="#6268FF"/>
<path d="M53.5249 27.9462V33.6692H72V44.5H39V0.5H71.7569V11.3308H53.5249V16.6231H70.1768V27.9462H53.5249Z" fill="#6268FF"/>
<path d="M25.3581 44.5H10.6419V11.5769H0V0.5H36V11.5769H25.3581V44.5Z" fill="#6268FF"/>
<path d="M470 45H457V11H446V1H481V11H470V45Z" fill="white"/>
<path d="M443 1V45H430V1H443Z" fill="white"/>
<path d="M376 45V1H395.351L397.943 13.3692C399.089 18.9692 400.837 26.9077 401.621 32.0154H401.801C402.465 27.8308 403.911 19.6462 405.358 13.0615L408.011 1H427V45H415.486V27.5846C415.486 21.7385 415.546 17.4308 415.787 12.0154H415.546C414.582 16.6923 413.858 21.0615 412.472 26.4769L408.011 45H395.411L390.77 26.5385C389.262 20.6308 388.479 16.2 387.695 12.0154H387.454C387.635 17.4308 387.755 21.4308 387.755 27.4V45H376Z" fill="white"/>
<path d="M321 45V1H340.731L343.374 13.3692C344.541 18.9692 346.324 26.9077 347.123 32.0154H347.307C347.983 27.8308 349.459 19.6462 350.934 13.0615L353.638 1H373V45H361.26V27.5846C361.26 21.7385 361.322 17.4308 361.567 12.0154H361.322C360.338 16.6923 359.6 21.0615 358.187 26.4769L353.638 45H340.792L336.059 26.5385C334.522 20.6308 333.723 16.2 332.924 12.0154H332.678C332.863 17.4308 332.986 21.4308 332.986 27.4V45H321Z" fill="white"/>
<path d="M318 1V26.074C318 32.8247 316.432 36.863 313.536 39.937C310.279 43.3123 305.454 45 299 45C292.546 45 287.721 43.3123 284.463 39.937C281.568 36.863 280 32.8247 280 26.074V1H292.546V26.9178C292.546 32.4027 294.959 35.1753 299 35.1753C303.283 35.1753 305.514 32.3425 305.514 26.5562V1H318Z" fill="white"/>
<path d="M240 30.5466H252.66C253.149 34.3725 255.106 36.0121 258.959 36.0121C262.2 36.0121 264.585 34.4332 264.585 31.8219C264.585 29.0891 262.261 28.9069 258.041 27.6316L255.228 26.8421C245.26 24.1093 241.101 19.7976 241.101 12.9352C241.101 5.10121 247.583 0 258.531 0C268.988 0 275.532 4.8583 276.083 13.664H263.851C263.301 10.3239 261.65 8.80567 258.286 8.80567C255.289 8.80567 253.638 10.1417 253.638 12.2672C253.638 15.2429 256.145 15.7895 260.855 17.247L263.117 17.915C273.086 20.83 277 24.2308 277 31.2753C277 39.7166 269.906 45 258.469 45C246.911 45 240.55 39.5951 240 30.5466Z" fill="white"/>
<path d="M547.317 44.5L541 38.6493V6.35075L547.317 0.5H571.502L577.82 6.35075V13.7537H566.088V11.0672L563.982 8.97761H554.657L552.491 11.0672V17.0373H571.683L578 22.8881V38.6493L571.683 44.5H547.317ZM554.657 36.0224H564.584L566.689 33.9328V26.8881L564.584 24.7985H554.657L552.491 26.8881V33.9328L554.657 36.0224Z" fill="white"/>
<path d="M501 44.5V34.2313L525.815 14.4701V10.7687L523.911 8.97761H515.533L513.63 10.7687V15.3657H501.762V6.35075L508.425 0.5H530.955L537.683 6.35075V18.1716L515.343 35.6045H538V44.5H501Z" fill="white"/>
<path d="M458.414 235L434 212.261V86.738L458.414 64H551.888L576.303 86.738V115.509H530.961V105.067L522.823 96.9469H486.782L478.411 105.067V128.27H552.585L577 151.008V212.261L552.585 235H458.414ZM486.782 202.053H525.148L533.286 193.932V166.554L525.148 158.432H486.782L478.411 166.554V193.932L486.782 202.053Z" fill="white"/>
<path d="M296 235V195.092L386.541 118.293V103.907L379.594 96.9469H349.027L342.08 103.907V121.774H298.779V86.738L323.093 64H405.297L429.842 86.738V132.678L348.333 200.429H431V235H296Z" fill="white"/>
<path d="M249.076 173.551L248.929 173.403L241.08 165.575L240.935 165.43H170.691L170.69 165.429L144.873 139.442V90.2539L170.69 64.5H282.803V99.3027H195.812L195.665 99.4482L187.818 107.276L187.671 107.423V122.506L187.818 122.652L195.665 130.481L195.812 130.628H266.057L291.873 156.381V209.744L266.057 235.5H151.618V200.698H240.935L241.081 200.552L248.929 192.723L249.076 192.576V173.551Z" fill="#6268FF" stroke="url(#paint0_linear_156_77)"/>
<path d="M140.102 64.5V99.7666H92.2979V235.5H48.9053V99.7666H1.10156V64.5H140.102Z" fill="#6268FF" stroke="url(#paint1_linear_156_77)"/>
<defs>
<linearGradient id="paint0_linear_156_77" x1="171.519" y1="61.0661" x2="268.722" y2="235.3" gradientUnits="userSpaceOnUse">
<stop offset="0.235577" stop-color="#BBBEFF"/>
<stop offset="1" stop-color="#BBBEFF" stop-opacity="0.2"/>
</linearGradient>
<linearGradient id="paint1_linear_156_77" x1="0.998381" y1="64.3975" x2="118.303" y2="242.598" gradientUnits="userSpaceOnUse">
<stop stop-color="#BBBEFF"/>
<stop offset="1" stop-color="#BBBEFF" stop-opacity="0.2"/>
</linearGradient>
</defs>
</svg>
