<?xml version="1.0" encoding="UTF-8" standalone="no"?>
<!DOCTYPE svg PUBLIC "-//W3C//DTD SVG 1.1//EN" "http://www.w3.org/Graphics/SVG/1.1/DTD/svg11.dtd">
<svg width="100%" height="100%" viewBox="0 0 3400 1756" version="1.1" xmlns="http://www.w3.org/2000/svg" xmlns:xlink="http://www.w3.org/1999/xlink" xml:space="preserve" xmlns:serif="http://www.serif.com/" style="fill-rule:evenodd;clip-rule:evenodd;stroke-linejoin:round;stroke-miterlimit:2;">
    <g transform="matrix(1,0,0,1,-98,0)">
        <g id="TBV_logo" transform="matrix(0.95936,0,0,0.495387,98,0)">
            <rect x="0" y="0" width="3543.31" height="3543.31" style="fill:none;"/>
            <g transform="matrix(1.19473,0,0,2.31371,-384.072,-1207.49)">
                <g transform="matrix(4.14298,0,0,4.14298,-55463.9,-192266)">
                    <path d="M14174.9,46548L14174.9,46889C14174.9,46892.3 14172.2,46895 14168.9,46895L13477,46895C13473.7,46895 13471,46892.3 13471,46889L13471,46548C13471,46544.7 13473.7,46542 13477,46542L14168.9,46542C14172.2,46542 14174.9,46544.7 14174.9,46548ZM13914,46883L14162.9,46883L14162.9,46554L13914,46554L13914,46883ZM13787.4,46656.9C13764.7,46656.9 13746.9,46664 13733.9,46678.4L13733.9,46592.2L13682.4,46592.2L13682.4,46837.1L13731.6,46837.1L13731.6,46816.7C13744.4,46832.1 13763,46839.8 13787.4,46839.8C13803.9,46839.8 13818.9,46836 13832.5,46828.4C13846,46820.8 13856.6,46810.1 13864.3,46796.4C13872,46782.6 13875.9,46766.6 13875.9,46748.3C13875.9,46730.1 13872,46714.1 13864.3,46700.3C13856.6,46686.6 13846,46675.9 13832.5,46668.3C13818.9,46660.7 13803.9,46656.9 13787.4,46656.9ZM13778.5,46797.5C13765.3,46797.5 13754.5,46793.1 13746,46784.2C13737.5,46775.2 13733.3,46763.3 13733.3,46748.3C13733.3,46733.4 13737.5,46721.4 13746,46712.5C13754.5,46703.6 13765.3,46699.2 13778.5,46699.2C13791.7,46699.2 13802.5,46703.6 13811,46712.5C13819.5,46721.4 13823.7,46733.4 13823.7,46748.3C13823.7,46763.3 13819.5,46775.2 13811,46784.2C13802.5,46793.1 13791.7,46797.5 13778.5,46797.5ZM13653.4,46828.6L13639.5,46792.2C13633.8,46796.6 13626.9,46798.8 13618.7,46798.8C13611.7,46798.8 13606.2,46796.8 13602.4,46792.7C13598.5,46788.7 13596.6,46782.9 13596.6,46775.4L13596.6,46703.1L13640.8,46703.1L13640.8,46663.5L13596.6,46663.5L13596.6,46592.4L13545.1,46592.4L13545.1,46663.5L13517.7,46663.5L13517.7,46703.1L13545.1,46703.1L13545.1,46776.1C13545.1,46797 13550.9,46812.8 13562.4,46823.6C13574,46834.4 13590.3,46839.8 13611.5,46839.8C13619.6,46839.8 13627.4,46838.8 13634.7,46837C13642.1,46835.1 13648.3,46832.3 13653.4,46828.6Z" style="fill:rgb(253,134,0);"/>
                </g>
                <g transform="matrix(27.3545,0,0,27.3545,-88134.7,-1.50999e+06)">
                    <path d="M3335.93,55239.1L3324.58,55266L3316.53,55266L3305.22,55239.1L3313.28,55239.1L3320.72,55257.4L3328.43,55239.1L3335.93,55239.1Z" style="fill:rgb(253,134,0);fill-rule:nonzero;"/>
                </g>
            </g>
        </g>
    </g>
</svg>
