<svg width="118" height="43" viewBox="0 0 118 43" fill="none" xmlns="http://www.w3.org/2000/svg">
<path d="M0.5 14.2692C0.5 13.5548 0.5 13.1976 0.536456 12.8973C0.813753 10.6136 2.61357 8.81375 4.89732 8.53646C5.19756 8.5 5.55478 8.5 6.26923 8.5C6.48357 8.5 6.59073 8.5 6.68081 8.51094C7.36593 8.59413 7.90587 9.13407 7.98906 9.8192C8 9.90927 8 10.0164 8 10.2308V13.5C8 14.9142 8 15.6213 7.56066 16.0607C7.12132 16.5 6.41421 16.5 5 16.5H2.34615C2.02451 16.5 1.86369 16.5 1.72962 16.4754C1.1166 16.3631 0.63691 15.8834 0.52457 15.2704C0.5 15.1363 0.5 14.9755 0.5 14.6538V14.2692Z" fill="#FF6F3E"/>
<path d="M0 21.5C0 20.57 0 20.105 0.102223 19.7235C0.379624 18.6883 1.18827 17.8796 2.22354 17.6022C2.60504 17.5 3.07003 17.5 4 17.5H5.33333C6.42641 17.5 6.97295 17.5 7.36036 17.7713C7.5037 17.8716 7.62837 17.9963 7.72873 18.1396C8 18.5271 8 19.0736 8 20.1667V22.8333C8 23.9264 8 24.4729 7.72873 24.8604C7.62837 25.0037 7.5037 25.1284 7.36036 25.2287C6.97295 25.5 6.42641 25.5 5.33333 25.5H4C3.07003 25.5 2.60504 25.5 2.22354 25.3978C1.18827 25.1204 0.379624 24.3117 0.102223 23.2765C0 22.895 0 22.43 0 21.5Z" fill="#FF6F3E"/>
<path d="M0.5 29.1667C0.5 27.6939 1.69391 26.5 3.16667 26.5H22.8333C24.3061 26.5 25.5 27.6939 25.5 29.1667C25.5 32.1122 23.1122 34.5 20.1667 34.5H5.83333C2.88782 34.5 0.5 32.1122 0.5 29.1667Z" fill="#FF6F3E"/>
<path d="M9 19.7857C9 19.5204 9 19.3877 9.01258 19.2761C9.11705 18.3488 9.84883 17.6171 10.7761 17.5126C10.8877 17.5 11.0204 17.5 11.2857 17.5H13C14.8856 17.5 15.8284 17.5 16.4142 18.0858C17 18.6716 17 19.6144 17 21.5V23.2143C17 23.4796 17 23.6123 16.9874 23.7239C16.8829 24.6512 16.1512 25.3829 15.2239 25.4874C15.1123 25.5 14.9796 25.5 14.7143 25.5C14.0509 25.5 13.7192 25.5 13.4402 25.4686C11.1221 25.2074 9.29263 23.3779 9.03144 21.0598C9 20.7808 9 20.4491 9 19.7857Z" fill="#FF6F3E"/>
<path d="M18 20.1667C18 19.0736 18 18.5271 18.2713 18.1396C18.3716 17.9963 18.4963 17.8716 18.6396 17.7713C19.0271 17.5 19.5736 17.5 20.6667 17.5H22C22.93 17.5 23.395 17.5 23.7765 17.6022C24.8117 17.8796 25.6204 18.6883 25.8978 19.7235C26 20.105 26 20.57 26 21.5C26 22.43 26 22.895 25.8978 23.2765C25.6204 24.3117 24.8117 25.1204 23.7765 25.3978C23.395 25.5 22.93 25.5 22 25.5H20.6667C19.5736 25.5 19.0271 25.5 18.6396 25.2287C18.4963 25.1284 18.3716 25.0037 18.2713 24.8604C18 24.4729 18 23.9264 18 22.8333V20.1667Z" fill="#FF6F3E"/>
<path d="M9 14.0652C9 10.9916 11.4916 8.5 14.5652 8.5H19.9348C23.0084 8.5 25.5 10.9916 25.5 14.0652C25.5 15.4099 24.4099 16.5 23.0652 16.5H11.4348C10.0901 16.5 9 15.4099 9 14.0652Z" fill="#FF6F3E"/>
<path d="M42.9 31L38.475 17.825L41.625 17.8L44.575 27.2L44.025 27.15L47.225 19.8H49.075L52.35 27.15L51.7 27.225L54.675 17.825H57.825L53.375 31H51.175L47.8 23.1L48.275 23.15L45.075 31H42.9ZM64.6969 31.25C63.6135 31.25 62.6302 30.95 61.7469 30.35C60.8635 29.75 60.1552 28.9333 59.6219 27.9C59.0885 26.8667 58.8219 25.6917 58.8219 24.375C58.8219 23.0583 59.0885 21.8833 59.6219 20.85C60.1552 19.8167 60.8802 19.0083 61.7969 18.425C62.7135 17.8417 63.7469 17.55 64.8969 17.55C65.5635 17.55 66.1719 17.65 66.7219 17.85C67.2719 18.0333 67.7552 18.3 68.1719 18.65C68.5885 19 68.9302 19.4 69.1969 19.85C69.4802 20.3 69.6719 20.7833 69.7719 21.3L69.0969 21.125V17.825H72.1969V31H69.0719V27.85L69.7969 27.725C69.6802 28.175 69.4635 28.6167 69.1469 29.05C68.8469 29.4667 68.4635 29.8417 67.9969 30.175C67.5469 30.4917 67.0385 30.75 66.4719 30.95C65.9219 31.15 65.3302 31.25 64.6969 31.25ZM65.5469 28.525C66.2635 28.525 66.8969 28.35 67.4469 28C67.9969 27.65 68.4219 27.1667 68.7219 26.55C69.0385 25.9167 69.1969 25.1917 69.1969 24.375C69.1969 23.575 69.0385 22.8667 68.7219 22.25C68.4219 21.6333 67.9969 21.15 67.4469 20.8C66.8969 20.45 66.2635 20.275 65.5469 20.275C64.8302 20.275 64.1969 20.45 63.6469 20.8C63.1135 21.15 62.6969 21.6333 62.3969 22.25C62.0969 22.8667 61.9469 23.575 61.9469 24.375C61.9469 25.1917 62.0969 25.9167 62.3969 26.55C62.6969 27.1667 63.1135 27.65 63.6469 28C64.1969 28.35 64.8302 28.525 65.5469 28.525ZM79.6939 31L74.1439 17.825H77.4939L81.2439 27.675L80.5939 27.85L84.5439 17.825H87.8189L81.9939 31H79.6939ZM95.8773 31.25C94.494 31.25 93.269 30.9583 92.2023 30.375C91.1523 29.7917 90.3273 29 89.7273 28C89.144 26.9833 88.8523 25.825 88.8523 24.525C88.8523 23.4917 89.019 22.55 89.3523 21.7C89.6857 20.85 90.144 20.1167 90.7273 19.5C91.3273 18.8667 92.0357 18.3833 92.8523 18.05C93.6857 17.7 94.594 17.525 95.5773 17.525C96.444 17.525 97.2523 17.6917 98.0023 18.025C98.7523 18.3583 99.4023 18.8167 99.9523 19.4C100.502 19.9667 100.919 20.65 101.202 21.45C101.502 22.2333 101.644 23.0917 101.627 24.025L101.602 25.1H90.9273L90.3523 23H99.0273L98.6273 23.425V22.875C98.5773 22.3583 98.4107 21.9083 98.1273 21.525C97.844 21.125 97.4773 20.8167 97.0273 20.6C96.594 20.3667 96.1107 20.25 95.5773 20.25C94.7607 20.25 94.069 20.4083 93.5023 20.725C92.9523 21.0417 92.5357 21.5 92.2523 22.1C91.969 22.6833 91.8273 23.4167 91.8273 24.3C91.8273 25.15 92.0023 25.8917 92.3523 26.525C92.719 27.1583 93.2273 27.65 93.8773 28C94.544 28.3333 95.319 28.5 96.2023 28.5C96.819 28.5 97.3857 28.4 97.9023 28.2C98.419 28 98.9773 27.6417 99.5773 27.125L101.102 29.25C100.652 29.6667 100.136 30.025 99.5523 30.325C98.9857 30.6083 98.3857 30.8333 97.7523 31C97.119 31.1667 96.494 31.25 95.8773 31.25ZM110.526 31.25C109.142 31.25 107.917 30.9583 106.851 30.375C105.801 29.7917 104.976 29 104.376 28C103.792 26.9833 103.501 25.825 103.501 24.525C103.501 23.4917 103.667 22.55 104.001 21.7C104.334 20.85 104.792 20.1167 105.376 19.5C105.976 18.8667 106.684 18.3833 107.501 18.05C108.334 17.7 109.242 17.525 110.226 17.525C111.092 17.525 111.901 17.6917 112.651 18.025C113.401 18.3583 114.051 18.8167 114.601 19.4C115.151 19.9667 115.567 20.65 115.851 21.45C116.151 22.2333 116.292 23.0917 116.276 24.025L116.251 25.1H105.576L105.001 23H113.676L113.276 23.425V22.875C113.226 22.3583 113.059 21.9083 112.776 21.525C112.492 21.125 112.126 20.8167 111.676 20.6C111.242 20.3667 110.759 20.25 110.226 20.25C109.409 20.25 108.717 20.4083 108.151 20.725C107.601 21.0417 107.184 21.5 106.901 22.1C106.617 22.6833 106.476 23.4167 106.476 24.3C106.476 25.15 106.651 25.8917 107.001 26.525C107.367 27.1583 107.876 27.65 108.526 28C109.192 28.3333 109.967 28.5 110.851 28.5C111.467 28.5 112.034 28.4 112.551 28.2C113.067 28 113.626 27.6417 114.226 27.125L115.751 29.25C115.301 29.6667 114.784 30.025 114.201 30.325C113.634 30.6083 113.034 30.8333 112.401 31C111.767 31.1667 111.142 31.25 110.526 31.25Z" fill="#2C2C2C"/>
</svg>
