<svg xmlns="http://www.w3.org/2000/svg" xmlns:xlink="http://www.w3.org/1999/xlink" width="1000" zoomAndPan="magnify" viewBox="0 0 750 749.999995" height="1000" preserveAspectRatio="xMidYMid meet" version="1.0"><defs><g/><clipPath id="b9c6229539"><path d="M 1.382812 115.941406 L 167.199219 115.941406 L 167.199219 633.917969 L 1.382812 633.917969 Z M 1.382812 115.941406 " clip-rule="nonzero"/></clipPath><clipPath id="19c5d4ce37"><path d="M 582.800781 116.074219 L 748.617188 116.074219 L 748.617188 634.050781 L 582.800781 634.050781 Z M 582.800781 116.074219 " clip-rule="nonzero"/></clipPath></defs><g clip-path="url(#b9c6229539)"><path fill="#5976ff" d="M 1.382812 360.980469 C 57.214844 360.980469 65.761719 331.339844 65.761719 292.035156 L 65.761719 212.253906 C 65.761719 148.4375 102.234375 115.964844 159.214844 115.964844 L 167.199219 115.964844 L 167.199219 141.015625 L 156.945312 141.015625 C 114.785156 141.015625 94.277344 165.527344 94.277344 211.691406 L 94.277344 290.886719 C 94.277344 337.613281 77.164062 366.105469 43.546875 374.089844 C 77.75 383.78125 94.277344 407.144531 94.277344 457.851562 L 94.277344 535.925781 C 94.277344 586.070312 123.328125 608.847656 157.507812 608.847656 L 167.199219 608.847656 L 167.199219 633.917969 L 159.214844 633.917969 C 111.367188 633.917969 65.761719 607.136719 65.761719 537.046875 L 65.761719 456.703125 C 65.761719 419.667969 60.074219 387.761719 1.382812 387.761719 L 1.382812 360.980469 " fill-opacity="1" fill-rule="nonzero"/></g><g clip-path="url(#19c5d4ce37)"><path fill="#0cc0df" d="M 748.617188 389.015625 C 692.78125 389.015625 684.238281 418.652344 684.238281 457.957031 L 684.238281 537.742188 C 684.238281 601.558594 647.765625 634.027344 590.785156 634.027344 L 582.800781 634.027344 L 582.800781 608.980469 L 593.054688 608.980469 C 635.214844 608.980469 655.722656 584.46875 655.722656 538.300781 L 655.722656 459.105469 C 655.722656 412.378906 672.835938 383.886719 706.453125 375.90625 C 672.25 366.210938 655.722656 342.847656 655.722656 292.144531 L 655.722656 214.070312 C 655.722656 163.925781 626.671875 141.144531 592.492188 141.144531 L 582.800781 141.144531 L 582.800781 116.074219 L 590.785156 116.074219 C 638.632812 116.074219 684.238281 142.855469 684.238281 212.945312 L 684.238281 293.289062 C 684.238281 330.324219 689.925781 362.234375 748.617188 362.234375 L 748.617188 389.015625 " fill-opacity="1" fill-rule="nonzero"/></g><g fill="#000000" fill-opacity="1"><g transform="translate(146.195664, 287.90344)"><g><path d="M 83.671875 -58.28125 L 67.390625 0 L 53.609375 0 L 42.671875 -41.5 L 31.234375 0 L 17.53125 0.078125 L 1.84375 -58.28125 L 14.359375 -58.28125 L 24.625 -13.03125 L 36.484375 -58.28125 L 49.515625 -58.28125 L 60.703125 -13.28125 L 71.0625 -58.28125 Z M 83.671875 -58.28125 "/></g></g></g><g fill="#000000" fill-opacity="1"><g transform="translate(231.68717, 287.90344)"><g><path d="M 2.75 -23.296875 C 2.75 -27.972656 3.679688 -32.117188 5.546875 -35.734375 C 7.410156 -39.359375 9.941406 -42.144531 13.140625 -44.09375 C 16.347656 -46.039062 19.925781 -47.015625 23.875 -47.015625 C 27.332031 -47.015625 30.351562 -46.316406 32.9375 -44.921875 C 35.53125 -43.523438 37.601562 -41.769531 39.15625 -39.65625 L 39.15625 -46.265625 L 50.9375 -46.265625 L 50.9375 0 L 39.15625 0 L 39.15625 -6.765625 C 37.65625 -4.585938 35.582031 -2.789062 32.9375 -1.375 C 30.289062 0.0390625 27.242188 0.75 23.796875 0.75 C 19.898438 0.75 16.347656 -0.25 13.140625 -2.25 C 9.941406 -4.257812 7.410156 -7.085938 5.546875 -10.734375 C 3.679688 -14.378906 2.75 -18.566406 2.75 -23.296875 Z M 39.15625 -23.125 C 39.15625 -25.96875 38.597656 -28.40625 37.484375 -30.4375 C 36.378906 -32.46875 34.878906 -34.023438 32.984375 -35.109375 C 31.085938 -36.191406 29.054688 -36.734375 26.890625 -36.734375 C 24.710938 -36.734375 22.707031 -36.203125 20.875 -35.140625 C 19.039062 -34.085938 17.550781 -32.546875 16.40625 -30.515625 C 15.269531 -28.484375 14.703125 -26.078125 14.703125 -23.296875 C 14.703125 -20.515625 15.269531 -18.078125 16.40625 -15.984375 C 17.550781 -13.898438 19.054688 -12.300781 20.921875 -11.1875 C 22.785156 -10.070312 24.773438 -9.515625 26.890625 -9.515625 C 29.054688 -9.515625 31.085938 -10.054688 32.984375 -11.140625 C 34.878906 -12.234375 36.378906 -13.796875 37.484375 -15.828125 C 38.597656 -17.859375 39.15625 -20.289062 39.15625 -23.125 Z M 39.15625 -23.125 "/></g></g></g><g fill="#000000" fill-opacity="1"><g transform="translate(288.291908, 287.90344)"><g><path d="M 25.046875 -10.765625 L 36.734375 -46.265625 L 49.1875 -46.265625 L 32.0625 0 L 17.875 0 L 0.828125 -46.265625 L 13.359375 -46.265625 Z M 25.046875 -10.765625 "/></g></g></g><g fill="#000000" fill-opacity="1"><g transform="translate(338.301103, 287.90344)"><g><path d="M 48.765625 -24.125 C 48.765625 -22.457031 48.65625 -20.957031 48.4375 -19.625 L 14.609375 -19.625 C 14.890625 -16.28125 16.054688 -13.660156 18.109375 -11.765625 C 20.171875 -9.878906 22.707031 -8.9375 25.71875 -8.9375 C 30.0625 -8.9375 33.148438 -10.800781 34.984375 -14.53125 L 47.59375 -14.53125 C 46.257812 -10.070312 43.695312 -6.410156 39.90625 -3.546875 C 36.125 -0.679688 31.476562 0.75 25.96875 0.75 C 21.507812 0.75 17.515625 -0.234375 13.984375 -2.203125 C 10.453125 -4.179688 7.695312 -6.976562 5.71875 -10.59375 C 3.738281 -14.21875 2.75 -18.394531 2.75 -23.125 C 2.75 -27.914062 3.722656 -32.117188 5.671875 -35.734375 C 7.617188 -39.359375 10.347656 -42.144531 13.859375 -44.09375 C 17.367188 -46.039062 21.40625 -47.015625 25.96875 -47.015625 C 30.363281 -47.015625 34.300781 -46.066406 37.78125 -44.171875 C 41.257812 -42.273438 43.957031 -39.585938 45.875 -36.109375 C 47.800781 -32.628906 48.765625 -28.632812 48.765625 -24.125 Z M 36.65625 -27.46875 C 36.601562 -30.476562 35.519531 -32.882812 33.40625 -34.6875 C 31.289062 -36.5 28.703125 -37.40625 25.640625 -37.40625 C 22.742188 -37.40625 20.304688 -36.523438 18.328125 -34.765625 C 16.347656 -33.015625 15.140625 -30.582031 14.703125 -27.46875 Z M 36.65625 -27.46875 "/></g></g></g><g fill="#000000" fill-opacity="1"><g transform="translate(146.195664, 403.379784)"><g><path d="M 32.8125 0.578125 C 27.351562 0.578125 22.34375 -0.695312 17.78125 -3.25 C 13.21875 -5.8125 9.597656 -9.359375 6.921875 -13.890625 C 4.253906 -18.429688 2.921875 -23.570312 2.921875 -29.3125 C 2.921875 -34.988281 4.253906 -40.09375 6.921875 -44.625 C 9.597656 -49.164062 13.21875 -52.71875 17.78125 -55.28125 C 22.34375 -57.84375 27.351562 -59.125 32.8125 -59.125 C 38.320312 -59.125 43.34375 -57.84375 47.875 -55.28125 C 52.414062 -52.71875 56.007812 -49.164062 58.65625 -44.625 C 61.300781 -40.09375 62.625 -34.988281 62.625 -29.3125 C 62.625 -23.570312 61.300781 -18.429688 58.65625 -13.890625 C 56.007812 -9.359375 52.40625 -5.8125 47.84375 -3.25 C 43.28125 -0.695312 38.269531 0.578125 32.8125 0.578125 Z M 32.8125 -9.859375 C 36.320312 -9.859375 39.410156 -10.648438 42.078125 -12.234375 C 44.753906 -13.816406 46.84375 -16.082031 48.34375 -19.03125 C 49.84375 -21.988281 50.59375 -25.414062 50.59375 -29.3125 C 50.59375 -33.207031 49.84375 -36.613281 48.34375 -39.53125 C 46.84375 -42.457031 44.753906 -44.695312 42.078125 -46.25 C 39.410156 -47.8125 36.320312 -48.59375 32.8125 -48.59375 C 29.3125 -48.59375 26.207031 -47.8125 23.5 -46.25 C 20.800781 -44.695312 18.703125 -42.457031 17.203125 -39.53125 C 15.703125 -36.613281 14.953125 -33.207031 14.953125 -29.3125 C 14.953125 -25.414062 15.703125 -21.988281 17.203125 -19.03125 C 18.703125 -16.082031 20.800781 -13.816406 23.5 -12.234375 C 26.207031 -10.648438 29.3125 -9.859375 32.8125 -9.859375 Z M 32.8125 -9.859375 "/></g></g></g><g fill="#000000" fill-opacity="1"><g transform="translate(211.733592, 403.379784)"><g><path d="M 26.96875 -36.65625 L 18.875 -36.65625 L 18.875 0 L 7.015625 0 L 7.015625 -36.65625 L 1.75 -36.65625 L 1.75 -46.265625 L 7.015625 -46.265625 L 7.015625 -48.59375 C 7.015625 -54.269531 8.628906 -58.441406 11.859375 -61.109375 C 15.085938 -63.785156 19.957031 -65.039062 26.46875 -64.875 L 26.46875 -55.03125 C 23.632812 -55.082031 21.660156 -54.609375 20.546875 -53.609375 C 19.429688 -52.609375 18.875 -50.796875 18.875 -48.171875 L 18.875 -46.265625 L 26.96875 -46.265625 Z M 26.96875 -36.65625 "/></g></g></g><g fill="#000000" fill-opacity="1"><g transform="translate(240.540082, 403.379784)"><g/></g></g><g fill="#000000" fill-opacity="1"><g transform="translate(146.195664, 518.856127)"><g><path d="M 17.453125 -58.28125 L 17.453125 0 L 5.765625 0 L 5.765625 -58.28125 Z M 17.453125 -58.28125 "/></g></g></g><g fill="#000000" fill-opacity="1"><g transform="translate(169.405262, 518.856127)"><g><path d="M 31.390625 -46.921875 C 36.898438 -46.921875 41.351562 -45.179688 44.75 -41.703125 C 48.144531 -38.222656 49.84375 -33.367188 49.84375 -27.140625 L 49.84375 0 L 38.15625 0 L 38.15625 -25.546875 C 38.15625 -29.222656 37.238281 -32.046875 35.40625 -34.015625 C 33.570312 -35.992188 31.066406 -36.984375 27.890625 -36.984375 C 24.660156 -36.984375 22.113281 -35.992188 20.25 -34.015625 C 18.382812 -32.046875 17.453125 -29.222656 17.453125 -25.546875 L 17.453125 0 L 5.765625 0 L 5.765625 -46.265625 L 17.453125 -46.265625 L 17.453125 -40.5 C 19.015625 -42.5 21.003906 -44.066406 23.421875 -45.203125 C 25.835938 -46.347656 28.492188 -46.921875 31.390625 -46.921875 Z M 31.390625 -46.921875 "/></g></g></g><g fill="#000000" fill-opacity="1"><g transform="translate(224.590702, 518.856127)"><g><path d="M 31.390625 -46.921875 C 36.898438 -46.921875 41.351562 -45.179688 44.75 -41.703125 C 48.144531 -38.222656 49.84375 -33.367188 49.84375 -27.140625 L 49.84375 0 L 38.15625 0 L 38.15625 -25.546875 C 38.15625 -29.222656 37.238281 -32.046875 35.40625 -34.015625 C 33.570312 -35.992188 31.066406 -36.984375 27.890625 -36.984375 C 24.660156 -36.984375 22.113281 -35.992188 20.25 -34.015625 C 18.382812 -32.046875 17.453125 -29.222656 17.453125 -25.546875 L 17.453125 0 L 5.765625 0 L 5.765625 -46.265625 L 17.453125 -46.265625 L 17.453125 -40.5 C 19.015625 -42.5 21.003906 -44.066406 23.421875 -45.203125 C 25.835938 -46.347656 28.492188 -46.921875 31.390625 -46.921875 Z M 31.390625 -46.921875 "/></g></g></g><g fill="#000000" fill-opacity="1"><g transform="translate(279.776142, 518.856127)"><g><path d="M 26.296875 0.75 C 21.847656 0.75 17.84375 -0.234375 14.28125 -2.203125 C 10.71875 -4.179688 7.921875 -6.976562 5.890625 -10.59375 C 3.859375 -14.21875 2.84375 -18.394531 2.84375 -23.125 C 2.84375 -27.863281 3.882812 -32.039062 5.96875 -35.65625 C 8.050781 -39.269531 10.898438 -42.066406 14.515625 -44.046875 C 18.140625 -46.023438 22.179688 -47.015625 26.640625 -47.015625 C 31.085938 -47.015625 35.117188 -46.023438 38.734375 -44.046875 C 42.359375 -42.066406 45.210938 -39.269531 47.296875 -35.65625 C 49.390625 -32.039062 50.4375 -27.863281 50.4375 -23.125 C 50.4375 -18.394531 49.363281 -14.21875 47.21875 -10.59375 C 45.070312 -6.976562 42.175781 -4.179688 38.53125 -2.203125 C 34.882812 -0.234375 30.804688 0.75 26.296875 0.75 Z M 26.296875 -9.4375 C 28.410156 -9.4375 30.398438 -9.953125 32.265625 -10.984375 C 34.128906 -12.015625 35.617188 -13.554688 36.734375 -15.609375 C 37.847656 -17.671875 38.40625 -20.175781 38.40625 -23.125 C 38.40625 -27.519531 37.25 -30.898438 34.9375 -33.265625 C 32.632812 -35.640625 29.8125 -36.828125 26.46875 -36.828125 C 23.125 -36.828125 20.328125 -35.640625 18.078125 -33.265625 C 15.828125 -30.898438 14.703125 -27.519531 14.703125 -23.125 C 14.703125 -18.726562 15.800781 -15.347656 18 -12.984375 C 20.195312 -10.617188 22.960938 -9.4375 26.296875 -9.4375 Z M 26.296875 -9.4375 "/></g></g></g><g fill="#000000" fill-opacity="1"><g transform="translate(333.041357, 518.856127)"><g><path d="M 25.046875 -10.765625 L 36.734375 -46.265625 L 49.1875 -46.265625 L 32.0625 0 L 17.875 0 L 0.828125 -46.265625 L 13.359375 -46.265625 Z M 25.046875 -10.765625 "/></g></g></g><g fill="#000000" fill-opacity="1"><g transform="translate(383.050552, 518.856127)"><g><path d="M 2.75 -23.296875 C 2.75 -27.972656 3.679688 -32.117188 5.546875 -35.734375 C 7.410156 -39.359375 9.941406 -42.144531 13.140625 -44.09375 C 16.347656 -46.039062 19.925781 -47.015625 23.875 -47.015625 C 27.332031 -47.015625 30.351562 -46.316406 32.9375 -44.921875 C 35.53125 -43.523438 37.601562 -41.769531 39.15625 -39.65625 L 39.15625 -46.265625 L 50.9375 -46.265625 L 50.9375 0 L 39.15625 0 L 39.15625 -6.765625 C 37.65625 -4.585938 35.582031 -2.789062 32.9375 -1.375 C 30.289062 0.0390625 27.242188 0.75 23.796875 0.75 C 19.898438 0.75 16.347656 -0.25 13.140625 -2.25 C 9.941406 -4.257812 7.410156 -7.085938 5.546875 -10.734375 C 3.679688 -14.378906 2.75 -18.566406 2.75 -23.296875 Z M 39.15625 -23.125 C 39.15625 -25.96875 38.597656 -28.40625 37.484375 -30.4375 C 36.378906 -32.46875 34.878906 -34.023438 32.984375 -35.109375 C 31.085938 -36.191406 29.054688 -36.734375 26.890625 -36.734375 C 24.710938 -36.734375 22.707031 -36.203125 20.875 -35.140625 C 19.039062 -34.085938 17.550781 -32.546875 16.40625 -30.515625 C 15.269531 -28.484375 14.703125 -26.078125 14.703125 -23.296875 C 14.703125 -20.515625 15.269531 -18.078125 16.40625 -15.984375 C 17.550781 -13.898438 19.054688 -12.300781 20.921875 -11.1875 C 22.785156 -10.070312 24.773438 -9.515625 26.890625 -9.515625 C 29.054688 -9.515625 31.085938 -10.054688 32.984375 -11.140625 C 34.878906 -12.234375 36.378906 -13.796875 37.484375 -15.828125 C 38.597656 -17.859375 39.15625 -20.289062 39.15625 -23.125 Z M 39.15625 -23.125 "/></g></g></g><g fill="#000000" fill-opacity="1"><g transform="translate(439.65529, 518.856127)"><g><path d="M 19.375 -36.65625 L 19.375 -14.28125 C 19.375 -12.71875 19.75 -11.585938 20.5 -10.890625 C 21.25 -10.203125 22.515625 -9.859375 24.296875 -9.859375 L 29.71875 -9.859375 L 29.71875 0 L 22.375 0 C 12.519531 0 7.59375 -4.785156 7.59375 -14.359375 L 7.59375 -36.65625 L 2.09375 -36.65625 L 2.09375 -46.265625 L 7.59375 -46.265625 L 7.59375 -57.703125 L 19.375 -57.703125 L 19.375 -46.265625 L 29.71875 -46.265625 L 29.71875 -36.65625 Z M 19.375 -36.65625 "/></g></g></g><g fill="#000000" fill-opacity="1"><g transform="translate(472.048554, 518.856127)"><g><path d="M 11.6875 -51.765625 C 9.625 -51.765625 7.910156 -52.414062 6.546875 -53.71875 C 5.191406 -55.03125 4.515625 -56.660156 4.515625 -58.609375 C 4.515625 -60.566406 5.191406 -62.195312 6.546875 -63.5 C 7.910156 -64.8125 9.625 -65.46875 11.6875 -65.46875 C 13.75 -65.46875 15.460938 -64.8125 16.828125 -63.5 C 18.191406 -62.195312 18.875 -60.566406 18.875 -58.609375 C 18.875 -56.660156 18.191406 -55.03125 16.828125 -53.71875 C 15.460938 -52.414062 13.75 -51.765625 11.6875 -51.765625 Z M 17.453125 -46.265625 L 17.453125 0 L 5.765625 0 L 5.765625 -46.265625 Z M 17.453125 -46.265625 "/></g></g></g><g fill="#000000" fill-opacity="1"><g transform="translate(495.258151, 518.856127)"><g><path d="M 26.296875 0.75 C 21.847656 0.75 17.84375 -0.234375 14.28125 -2.203125 C 10.71875 -4.179688 7.921875 -6.976562 5.890625 -10.59375 C 3.859375 -14.21875 2.84375 -18.394531 2.84375 -23.125 C 2.84375 -27.863281 3.882812 -32.039062 5.96875 -35.65625 C 8.050781 -39.269531 10.898438 -42.066406 14.515625 -44.046875 C 18.140625 -46.023438 22.179688 -47.015625 26.640625 -47.015625 C 31.085938 -47.015625 35.117188 -46.023438 38.734375 -44.046875 C 42.359375 -42.066406 45.210938 -39.269531 47.296875 -35.65625 C 49.390625 -32.039062 50.4375 -27.863281 50.4375 -23.125 C 50.4375 -18.394531 49.363281 -14.21875 47.21875 -10.59375 C 45.070312 -6.976562 42.175781 -4.179688 38.53125 -2.203125 C 34.882812 -0.234375 30.804688 0.75 26.296875 0.75 Z M 26.296875 -9.4375 C 28.410156 -9.4375 30.398438 -9.953125 32.265625 -10.984375 C 34.128906 -12.015625 35.617188 -13.554688 36.734375 -15.609375 C 37.847656 -17.671875 38.40625 -20.175781 38.40625 -23.125 C 38.40625 -27.519531 37.25 -30.898438 34.9375 -33.265625 C 32.632812 -35.640625 29.8125 -36.828125 26.46875 -36.828125 C 23.125 -36.828125 20.328125 -35.640625 18.078125 -33.265625 C 15.828125 -30.898438 14.703125 -27.519531 14.703125 -23.125 C 14.703125 -18.726562 15.800781 -15.347656 18 -12.984375 C 20.195312 -10.617188 22.960938 -9.4375 26.296875 -9.4375 Z M 26.296875 -9.4375 "/></g></g></g><g fill="#000000" fill-opacity="1"><g transform="translate(548.523367, 518.856127)"><g><path d="M 31.390625 -46.921875 C 36.898438 -46.921875 41.351562 -45.179688 44.75 -41.703125 C 48.144531 -38.222656 49.84375 -33.367188 49.84375 -27.140625 L 49.84375 0 L 38.15625 0 L 38.15625 -25.546875 C 38.15625 -29.222656 37.238281 -32.046875 35.40625 -34.015625 C 33.570312 -35.992188 31.066406 -36.984375 27.890625 -36.984375 C 24.660156 -36.984375 22.113281 -35.992188 20.25 -34.015625 C 18.382812 -32.046875 17.453125 -29.222656 17.453125 -25.546875 L 17.453125 0 L 5.765625 0 L 5.765625 -46.265625 L 17.453125 -46.265625 L 17.453125 -40.5 C 19.015625 -42.5 21.003906 -44.066406 23.421875 -45.203125 C 25.835938 -46.347656 28.492188 -46.921875 31.390625 -46.921875 Z M 31.390625 -46.921875 "/></g></g></g></svg>