<svg width="1661" height="1745" viewBox="0 0 1661 1745" fill="none" xmlns="http://www.w3.org/2000/svg">
<path d="M382.042 77.7136H412.243V0H382.042C350.008 0 318.297 6.25592 288.689 18.4981C259.081 30.7403 232.17 48.6991 209.519 71.3498C186.869 94.0006 168.91 120.912 156.668 150.52C144.425 180.127 138.116 211.838 138.169 243.873V420.872C138.223 458.354 123.986 494.433 98.261 521.722C72.5902 549.011 37.4276 565.459 0 567.671L2.15721 606.5L0 645.33C37.4276 647.541 72.5902 663.99 98.261 691.279C123.932 718.568 138.223 754.647 138.169 792.129V996.093C138.062 1063.78 164.811 1128.76 212.593 1176.71C260.376 1224.65 325.2 1251.72 392.882 1251.88V1174.17C345.963 1174.17 300.931 1155.51 267.764 1122.29C234.597 1089.12 215.937 1044.09 215.883 997.172V792.129C215.883 755.51 206.985 719.484 189.835 687.072C172.739 654.714 147.931 627.048 117.622 606.446C147.823 585.791 172.523 558.125 189.673 525.767C206.769 493.409 215.775 457.437 215.883 420.818V243.819C216.099 199.812 233.68 157.638 264.798 126.521C295.916 95.4027 338.089 77.8215 382.096 77.6057L382.042 77.7136Z" fill="url(#paint0_linear_2345_207)"/>
<path d="M1279.98 77.7136H1249.78V0H1279.98C1344.54 0.161791 1406.34 25.9405 1451.86 71.6734C1497.38 117.406 1522.88 179.372 1522.78 243.873V420.872C1522.72 458.354 1537.01 494.433 1562.69 521.722C1588.36 549.011 1623.52 565.459 1660.95 567.671L1658.79 606.5L1660.95 645.33C1623.52 647.541 1588.36 663.936 1562.69 691.279C1537.01 718.568 1522.72 754.647 1522.78 792.129V996.093C1522.88 1063.78 1496.13 1128.76 1448.35 1176.71C1400.62 1224.65 1335.75 1251.72 1268.06 1251.88V1174.17C1314.98 1174.17 1360.01 1155.51 1393.18 1122.29C1426.35 1089.12 1445.01 1044.09 1445.06 997.172V792.129C1445.06 755.51 1453.96 719.484 1471.11 687.072C1488.21 654.714 1513.02 627.048 1543.27 606.446C1513.07 585.791 1488.37 558.125 1471.27 525.767C1454.18 493.409 1445.17 457.437 1445.06 420.818V243.819C1445.17 222.031 1440.96 200.459 1432.77 180.343C1424.52 160.173 1412.38 141.891 1397.06 126.413C1381.75 110.989 1363.47 98.6925 1343.4 90.3333C1323.34 81.9741 1301.77 77.6057 1279.98 77.6057V77.7136Z" fill="url(#paint1_linear_2345_207)"/>
<path d="M1113.77 312.958H1229.23L988.543 538.494C945.345 577.54 889.203 599.22 830.959 599.22C772.714 599.22 716.572 577.594 673.374 538.494L432.683 312.958H548.148L730.54 483.485C757.775 508.509 793.423 522.369 830.365 522.369C867.308 522.369 902.956 508.509 930.19 483.485L1113.66 312.958H1113.77Z" fill="url(#paint2_linear_2345_207)"/>
<path d="M547.177 938.927H431.712L673.482 712.312C716.41 672.781 772.66 650.831 831.066 650.831C889.473 650.831 945.668 672.781 988.651 712.312L1230.42 938.927H1114.96L931.484 766.242C904.25 741.218 868.602 727.358 831.659 727.358C794.717 727.358 759.069 741.218 731.834 766.242L547.285 938.927H547.177Z" fill="url(#paint3_linear_2345_207)"/>
<path d="M882.516 1600.33C869.519 1585.12 849.834 1576.22 829.017 1576.22H748.23V1462.21H865.528C873.833 1462.21 881.653 1463.72 889.096 1466.69C896.592 1469.71 903.171 1473.81 908.726 1478.99L908.834 1479.09C914.389 1484 918.757 1489.88 921.939 1496.89C925.121 1503.79 926.739 1511.24 926.739 1519.22C926.739 1527.2 925.121 1534.64 921.939 1541.49C919.998 1545.48 917.679 1549.26 914.874 1552.76L941.732 1582.69C942.055 1582.32 942.433 1581.99 942.702 1581.61C950.63 1573.04 956.778 1563.55 961.039 1553.03C965.623 1542.41 967.942 1531.08 967.942 1519.16C967.942 1506.38 965.353 1494.19 960.122 1482.76C954.945 1471.11 947.718 1460.97 938.496 1452.34C929.328 1443.77 918.649 1436.97 906.461 1431.85C894.435 1426.73 881.545 1424.03 867.793 1423.76H727.574C721.912 1423.76 716.95 1425.86 712.905 1429.69C708.968 1433.36 706.973 1437.84 706.973 1442.96V1737.04H748.23V1614.62H807.661C828.316 1614.62 847.947 1623.36 860.89 1638.4L946.1 1737.1H999.167L882.624 1600.27L882.516 1600.33Z" fill="#282828"/>
<path d="M177.323 1509.29C164.596 1522.24 147.769 1528.71 130.889 1528.71H128.085H86.5583V1422.68H45.3016V1545.32C45.3016 1557.4 55.117 1567.16 67.1434 1567.16H130.889C157.423 1567.16 183.957 1556.91 204.18 1536.47L316.625 1422.68H262.91L177.269 1509.24L177.323 1509.29Z" fill="#282828"/>
<path d="M130.889 1592.67H67.1434C55.063 1592.67 45.3016 1602.49 45.3016 1614.51V1737.15H86.5583V1631.18H128.085H130.889C147.715 1631.18 164.542 1637.7 177.323 1650.65L262.964 1737.2H316.679L204.234 1623.41C183.956 1602.92 157.477 1592.72 130.943 1592.72L130.889 1592.67Z" fill="#282828"/>
<path d="M517.893 1456.28C559.096 1456.28 592.587 1489.77 592.587 1530.97V1628.91C592.587 1670.11 559.096 1703.61 517.893 1703.61H478.686C437.483 1703.61 403.993 1670.11 403.993 1628.91V1530.97C403.993 1489.77 437.483 1456.28 478.686 1456.28H517.893ZM517.893 1415.02H478.686C414.671 1415.02 362.736 1466.96 362.736 1530.97V1628.91C362.736 1692.93 414.671 1744.86 478.686 1744.86H517.893C581.909 1744.86 633.844 1692.93 633.844 1628.91V1530.97C633.844 1466.96 581.909 1415.02 517.893 1415.02Z" fill="#282828"/>
<path d="M1096.19 1696.43V1597.2H1272.59V1555.94H1096.19V1465.29H1284.24V1424.03H1076.13C1064.42 1424.03 1054.93 1433.52 1054.93 1445.12V1716.66C1054.93 1728.31 1064.42 1737.74 1076.13 1737.74H1286.51V1696.49H1096.19V1696.43Z" fill="#282828"/>
<path d="M1423.28 1619.91H1577.35L1617.37 1737.15H1661L1560.31 1442.15C1556.59 1431.26 1546.13 1423.92 1534.26 1423.92H1463.56C1451.48 1423.92 1440.96 1431.42 1437.35 1442.53L1341.84 1737.15H1385.25L1423.28 1619.91ZM1473.38 1465.23H1524.56L1563.22 1578.65H1436.6L1473.38 1465.23Z" fill="#282828"/>
<defs>
<linearGradient id="paint0_linear_2345_207" x1="380.101" y1="723.745" x2="608.118" y2="1143.27" gradientUnits="userSpaceOnUse">
<stop stop-color="#FF0059"/>
<stop offset="1" stop-color="#0079E4"/>
</linearGradient>
<linearGradient id="paint1_linear_2345_207" x1="1166.89" y1="296.131" x2="1394.91" y2="715.709" gradientUnits="userSpaceOnUse">
<stop stop-color="#FF0059"/>
<stop offset="1" stop-color="#0079E4"/>
</linearGradient>
<linearGradient id="paint2_linear_2345_207" x1="900.529" y1="440.88" x2="1128.55" y2="860.458" gradientUnits="userSpaceOnUse">
<stop stop-color="#FF0059"/>
<stop offset="1" stop-color="#0079E4"/>
</linearGradient>
<linearGradient id="paint3_linear_2345_207" x1="637.888" y1="583.634" x2="865.905" y2="1003.16" gradientUnits="userSpaceOnUse">
<stop stop-color="#FF0059"/>
<stop offset="1" stop-color="#0079E4"/>
</linearGradient>
</defs>
</svg>
