<?xml version="1.0" encoding="utf-8"?>
<!-- Generator: Adobe Illustrator 27.1.0, SVG Export Plug-In . SVG Version: 6.00 Build 0)  -->
<svg version="1.1" id="xSpectar_Logo" xmlns="http://www.w3.org/2000/svg" xmlns:xlink="http://www.w3.org/1999/xlink" x="0px"
	 y="0px" viewBox="0 0 512 256" style="enable-background:new 0 0 512 256;" xml:space="preserve">
<style type="text/css">
	.st0{fill:#012732;}
	.st1{display:none;fill:#F805A0;}
	.st2{fill:url(#SVGID_1_);}
	.st3{fill:url(#SVGID_00000070798589950477011920000015303362324917333418_);}
	.st4{fill:url(#SVGID_00000072271715439435931870000011699059280912896648_);}
	.st5{fill:url(#SVGID_00000109031278036816855880000004772178768030107045_);}
	.st6{fill:url(#SVGID_00000067929324339348515360000016268245441845475469_);}
	.st7{fill:url(#SVGID_00000183932386756582207710000018386167183075769226_);}
	.st8{fill:url(#SVGID_00000067939013388659470730000016850108308290635437_);}
	.st9{fill:url(#SVGID_00000074422297708613689700000016633903303212722870_);}
	.st10{fill:url(#SVGID_00000057110433257863277290000002095068212368440973_);}
	.st11{fill:url(#SVGID_00000008133429598287839900000005926219941822616204_);}
	.st12{fill:url(#SVGID_00000157287245132079815100000004118380285148616597_);}
	.st13{fill:url(#SVGID_00000100363767559920902520000012051768160009893006_);}
	.st14{fill:url(#SVGID_00000108286301330145003330000004440746800584956039_);}
	.st15{fill:url(#SVGID_00000080929227016223821350000017075317819942776197_);}
</style>
<g id="TEXTE">
	<g id="SPECTAR_00000163035701537758301910000012525023669424967098_">
		<g>
			<path class="st0" d="M155.58,219.35l2.64-6.18c4.48,2.5,8.97,4.58,14.07,4.58c7.33,0,9.57-3.15,9.62-5.97
				c0.06-3.56-4.44-4.62-9.84-6.38c-6.98-2.27-15.72-3.21-15.72-13.2c0-7.9,8.65-12.39,16.66-12.39c5.25,0,10.93,1.51,14.91,3.79
				l-2.89,6.13c-4.02-1.92-7.64-3.21-12.02-3.21c-4.94,0-8.95,1.49-8.95,6.14c0,4.76,6,5.02,11.04,6.43
				c7.48,2.1,14.44,2.46,14.44,12.8c0,7.9-7.42,12.31-17.25,12.31C166.33,224.19,160.72,222.31,155.58,219.35z"/>
			<path class="st0" d="M244.71,193.99c0,8.51-7.26,14.18-15.61,14.18h-12.73v15.37h-6.42v-40.3c0-3.43,0-3.43,3.45-3.43h15.71
				C237.45,179.81,244.71,185.54,244.71,193.99z M238.28,193.99c0-4.91-4.46-7.68-9.19-7.68h-12.73v15.37h12.73
				C233.94,201.68,238.28,198.84,238.28,193.99z"/>
			<path class="st0" d="M307.95,201.44c0-12.59,9.35-21.63,21.61-21.63c6.72,0,11.27,1.94,16.02,6.73l-4.6,5.34
				c-3.41-3.51-6.53-5.39-11.37-5.39c-8.7,0-14.84,6-14.84,14.98c0,8.92,5.69,15.82,14.39,15.82c5.31,0,9.44-1.44,12.3-5.64
				l4.45,4.74c-4.14,4.76-9.39,7.34-16.75,7.34C316.9,223.74,307.95,213.97,307.95,201.44z"/>
			<path class="st0" d="M390.78,187.09h-14.29v36.46h-7.57v-36.46h-13.84v-7.28h35.7V187.09z"/>
			<path class="st0" d="M439.29,223.54l-14.79-33.95l-14.79,33.95h-7.18l18.66-43.53h6.82l18.84,43.53H439.29z"/>
			<path class="st0" d="M478.37,208.55h-10.2v14.99h-7.55v-40.3c0-3.22,0-3.43,3.45-3.43h17.63c7.88,0,14.58,5.69,14.58,14.93
				c0,6.74-3.23,10-10,13.09l10.92,15.72h-8.31L478.37,208.55z M468.17,202.42h12.96c4.97,0,7.71-3.66,7.71-8.06
				c0-3.26-2.82-6.87-7.14-6.87h-13.53V202.42z"/>
		</g>
	</g>
	<g>
		<path class="st0" d="M293.12,186.31v-6.5H263.8c-3.45,0-3.45,0-3.45,3.43v3.07H293.12z"/>
		<path class="st0" d="M267.5,217.04v-12.11h22.75v-6.5l-29.9,0v21.63c0,3.49,0,3.49,3.45,3.49h29.78v-6.5H267.5z"/>
	</g>
</g>
<g id="ARC_GAUCHE">
	<path id="BASE_00000052808121728810567830000011809167251449179788_" class="st1" d="M245.52,92.36c0,0-48.49,45.26-75.56,72.59
		s-47.68,54.04-85.6,54.04c-39.48,0-68.5-29.65-68.5-72.41c0-37.06,36.63-61.04,56.98-61.04c26.93,0,52.31,28.87,52.87,44.31
		c-3.56-8.51-12.12-21.11-31.4-21.11c-20.3,0-40.37,13.75-40.37,36.23c0,22.48,21.42,36.76,41.2,36.76
		c20.62,0,38.9-12.89,42.97-16.78c4.07-3.9,75.82-72.59,75.82-72.59H245.52z"/>
	
		<linearGradient id="SVGID_1_" gradientUnits="userSpaceOnUse" x1="366.9698" y1="10.6406" x2="493.7035" y2="9.8599" gradientTransform="matrix(-1 0 0 -1 520.4799 200.9818)">
		<stop  offset="0" style="stop-color:#FD009D"/>
		<stop  offset="0.2494" style="stop-color:#FA029E"/>
		<stop  offset="0.4032" style="stop-color:#F207A0"/>
		<stop  offset="0.5311" style="stop-color:#E311A3"/>
		<stop  offset="0.6447" style="stop-color:#CF1EA8"/>
		<stop  offset="0.749" style="stop-color:#B42FAE"/>
		<stop  offset="0.8463" style="stop-color:#9445B6"/>
		<stop  offset="0.9365" style="stop-color:#6E5DBF"/>
		<stop  offset="1" style="stop-color:#4E72C6"/>
	</linearGradient>
	<path class="st2" d="M162.57,165.33h-20.59c0,0-24.34,24.73-48.42,32.74s-46.02-3.3-46.02-3.3s-20.75-10.12-26.25-18.19
		c4.31,11.75,14.71,26.22,34.48,34.58c18.74,7.93,38.21,4.69,50.54-1.12C131.64,197.88,162.57,165.33,162.57,165.33z"/>
	
		<linearGradient id="SVGID_00000093162359965899969580000002106757171210301319_" gradientUnits="userSpaceOnUse" x1="398.3906" y1="15.3436" x2="460.4734" y2="14.9862" gradientTransform="matrix(-1 0 0 -1 520.4799 200.9818)">
		<stop  offset="0" style="stop-color:#C7178D"/>
		<stop  offset="1" style="stop-color:#5F339F"/>
	</linearGradient>
	<path style="fill:url(#SVGID_00000093162359965899969580000002106757171210301319_);" d="M52.58,189.8c0,0,27.14,5.57,52.69-9.05
		c17.71-3.48,30.16-13.46,32.36-15.42c0.3,0,7.12,0,7.12,0s-14.63,14.8-27.94,23.64c-13.32,8.84-23.86,14.64-38.37,16.75
		c-20.83,3.02-43.49-10.09-57.21-29.29C25.35,179.68,30.3,184.92,52.58,189.8z"/>
	
		<linearGradient id="SVGID_00000060735665641671292860000011916928660932538040_" gradientUnits="userSpaceOnUse" x1="443.3421" y1="8.5858" x2="497.0164" y2="8.5858" gradientTransform="matrix(-1 0 0 -1 520.4799 200.9818)">
		<stop  offset="0" style="stop-color:#9645A8"/>
		<stop  offset="0.3212" style="stop-color:#894DAD"/>
		<stop  offset="0.429" style="stop-color:#8154B4"/>
		<stop  offset="0.6899" style="stop-color:#6E5BBD"/>
		<stop  offset="1" style="stop-color:#5865C1"/>
	</linearGradient>
	<path style="fill:url(#SVGID_00000060735665641671292860000011916928660932538040_);" d="M76.47,205.95c0,0-11.92-4.07-23.89-15.27
		c-6.7-1.41-24.06-6.37-29.79-12.04C29.37,188.18,51.25,208.44,76.47,205.95z"/>
	
		<linearGradient id="SVGID_00000005966017399373293550000007955048560353824385_" gradientUnits="userSpaceOnUse" x1="499.4746" y1="111.2808" x2="461.3339" y2="16.703" gradientTransform="matrix(-1 0 0 -1 520.4799 200.9818)">
		<stop  offset="0" style="stop-color:#7DBEE4"/>
		<stop  offset="0.3355" style="stop-color:#7EBBE3"/>
		<stop  offset="0.5464" style="stop-color:#82B3E0"/>
		<stop  offset="0.7229" style="stop-color:#88A4DB"/>
		<stop  offset="0.8795" style="stop-color:#9190D3"/>
		<stop  offset="1" style="stop-color:#9A7ACB"/>
	</linearGradient>
	<path style="fill:url(#SVGID_00000005966017399373293550000007955048560353824385_);" d="M52.58,190.67
		c-12.46-1.98-28.85-8.26-31.3-14.09c-3.75-9.63-5.56-20.65-5.56-30.21c0-40.03,40.04-56.69,40.04-56.69s-18.35,17.59-18.35,48.71
		S52.36,190.17,52.58,190.67z"/>
	
		<linearGradient id="SVGID_00000063597253912066526920000000463236170072635036_" gradientUnits="userSpaceOnUse" x1="404.8758" y1="34.631" x2="488.1619" y2="84.9245" gradientTransform="matrix(-1 0 0 -1 520.4799 200.9818)">
		<stop  offset="0" style="stop-color:#B035B3"/>
		<stop  offset="0.2409" style="stop-color:#9447BA"/>
		<stop  offset="0.7574" style="stop-color:#4E75CB"/>
		<stop  offset="1" style="stop-color:#2B8CD4"/>
	</linearGradient>
	<path style="fill:url(#SVGID_00000063597253912066526920000000463236170072635036_);" d="M52.58,190.67
		c14.94,2.17,38.15,0.77,52.69-9.92c-3.46,0.6-6.57,0.99-10.13,0.99c-19.79,0-41.2-14.28-41.2-36.76
		c0-22.48,20.07-36.23,40.37-36.23c19.28,0,27.84,12.6,31.4,21.11c-0.58-15.5-25.94-44.31-52.87-44.31
		c-4.99,0-10.95,1.42-17.08,4.15c-14.99,11.44-23.98,26.9-23.98,48.35C31.78,164.65,45.23,183.5,52.58,190.67z"/>
	
		<linearGradient id="SVGID_00000042011808167901085990000004430820173359798934_" gradientUnits="userSpaceOnUse" x1="423.4406" y1="92.8122" x2="478.3877" y2="61.7551" gradientTransform="matrix(-1 0 0 -1 520.4799 200.9818)">
		<stop  offset="0" style="stop-color:#7752BE"/>
		<stop  offset="0.0708" style="stop-color:#6951BA"/>
		<stop  offset="0.2197" style="stop-color:#5150B3"/>
		<stop  offset="0.3582" style="stop-color:#434FAF"/>
		<stop  offset="0.4754" style="stop-color:#3E4FAE"/>
		<stop  offset="1" style="stop-color:#2A3DA7"/>
	</linearGradient>
	<path style="fill:url(#SVGID_00000042011808167901085990000004430820173359798934_);" d="M71.97,106.88
		c-13.04,5.82-17.71,18.78-18.76,29.4c-0.47,4.76,0.6,10.96,0.86,11.78c-1.21-25.92,20.51-39.32,40.22-39.32
		c4.75,0,8.85,0.77,12.39,2.05C101.84,107.93,87.8,100.07,71.97,106.88z"/>
	
		<linearGradient id="SVGID_00000102507154569772314100000009084407541552457624_" gradientUnits="userSpaceOnUse" x1="356.9774" y1="8.6276" x2="498.6678" y2="8.6127" gradientTransform="matrix(-1 0 0 -1 520.4799 200.9818)">
		<stop  offset="0" style="stop-color:#FF45BA"/>
		<stop  offset="0.1509" style="stop-color:#FC62C3"/>
		<stop  offset="0.2374" style="stop-color:#FB6DC6"/>
		<stop  offset="0.3331" style="stop-color:#F967C4"/>
		<stop  offset="0.4592" style="stop-color:#F457BF"/>
		<stop  offset="0.5195" style="stop-color:#F14CBB"/>
		<stop  offset="0.6526" style="stop-color:#DD45B6"/>
		<stop  offset="0.7011" style="stop-color:#D542B4"/>
		<stop  offset="0.8202" style="stop-color:#B43DB6"/>
		<stop  offset="0.8602" style="stop-color:#8F4EBA"/>
		<stop  offset="0.9078" style="stop-color:#6761BE"/>
		<stop  offset="1" style="stop-color:#4F71C4"/>
	</linearGradient>
	<path style="fill:url(#SVGID_00000102507154569772314100000009084407541552457624_);" d="M161.72,165.33
		c0,0-11.64,11.72-27.78,24.89c-6.95,5.67-20.27,16.74-34.42,21.47c-19.74,6.52-32.9,3.27-42.01-0.41
		c-17.33-7-29.16-18.45-36.27-34.79c6.32,16.23,24.8,42.9,63.67,42.9c34.33-0.32,56.54-26.16,62.53-31.36
		c5.82-5.58,22.03-22.7,22.03-22.7H161.72z"/>
</g>
<g id="ARC_DROITE">
	<path id="BASE" class="st1" d="M137.56,165.62c0,0,48.49-45.26,75.56-72.59s47.68-54.04,85.6-54.04c39.48,0,68.5,29.65,68.5,72.41
		c0,37.06-36.63,61.04-56.98,61.04c-26.93,0-52.31-28.87-52.87-44.31c3.56,8.51,12.12,21.11,31.4,21.11
		c20.3,0,40.37-13.75,40.37-36.23c0-22.48-21.42-36.76-41.2-36.76c-20.62,0-38.9,12.89-42.97,16.78s-75.82,72.59-75.82,72.59H137.56
		z"/>
	
		<linearGradient id="SVGID_00000056421653046583532180000004914527746198815110_" gradientUnits="userSpaceOnUse" x1="229.5704" y1="67.6408" x2="356.304" y2="66.86">
		<stop  offset="0" style="stop-color:#FD009D"/>
		<stop  offset="0.2494" style="stop-color:#FA029E"/>
		<stop  offset="0.4032" style="stop-color:#F207A0"/>
		<stop  offset="0.5311" style="stop-color:#E311A3"/>
		<stop  offset="0.6447" style="stop-color:#CF1EA8"/>
		<stop  offset="0.749" style="stop-color:#B42FAE"/>
		<stop  offset="0.8463" style="stop-color:#9445B6"/>
		<stop  offset="0.9365" style="stop-color:#6E5DBF"/>
		<stop  offset="1" style="stop-color:#4E72C6"/>
	</linearGradient>
	<path style="fill:url(#SVGID_00000056421653046583532180000004914527746198815110_);" d="M220.51,92.65h20.59
		c0,0,24.34-24.73,48.42-32.74c24.08-8,46.02,3.3,46.02,3.3S356.3,73.33,361.8,81.4c-4.31-11.75-14.71-26.22-34.48-34.58
		c-18.74-7.93-38.21-4.69-50.54,1.12C251.44,60.1,220.51,92.65,220.51,92.65z"/>
	
		<linearGradient id="SVGID_00000095304316652404013860000018293932905708224403_" gradientUnits="userSpaceOnUse" x1="260.9911" y1="72.3438" x2="323.0739" y2="71.9864">
		<stop  offset="0" style="stop-color:#C7178D"/>
		<stop  offset="1" style="stop-color:#5F339F"/>
	</linearGradient>
	<path style="fill:url(#SVGID_00000095304316652404013860000018293932905708224403_);" d="M330.5,68.18c0,0-27.14-5.57-52.69,9.05
		c-17.71,3.48-30.16,13.46-32.36,15.42c-0.3,0-7.12,0-7.12,0s14.63-14.8,27.94-23.64c13.32-8.84,23.86-14.64,38.37-16.75
		c20.83-3.02,43.49,10.09,57.21,29.29C357.73,78.3,352.78,73.06,330.5,68.18z"/>
	
		<linearGradient id="SVGID_00000015351173342436088750000010314282167932205210_" gradientUnits="userSpaceOnUse" x1="305.9427" y1="65.5859" x2="359.6169" y2="65.5859">
		<stop  offset="0" style="stop-color:#9645A8"/>
		<stop  offset="0.3212" style="stop-color:#894DAD"/>
		<stop  offset="0.429" style="stop-color:#8154B4"/>
		<stop  offset="0.6899" style="stop-color:#6E5BBD"/>
		<stop  offset="1" style="stop-color:#5865C1"/>
	</linearGradient>
	<path style="fill:url(#SVGID_00000015351173342436088750000010314282167932205210_);" d="M306.61,52.04c0,0,11.92,4.07,23.89,15.27
		c6.7,1.41,24.06,6.37,29.79,12.04C353.71,69.8,331.83,49.54,306.61,52.04z"/>
	
		<linearGradient id="SVGID_00000135650100020161126410000012846829343992896428_" gradientUnits="userSpaceOnUse" x1="362.0752" y1="168.281" x2="323.9344" y2="73.7031">
		<stop  offset="0" style="stop-color:#7DBEE4"/>
		<stop  offset="0.3355" style="stop-color:#7EBBE3"/>
		<stop  offset="0.5464" style="stop-color:#82B3E0"/>
		<stop  offset="0.7229" style="stop-color:#88A4DB"/>
		<stop  offset="0.8795" style="stop-color:#9190D3"/>
		<stop  offset="1" style="stop-color:#9A7ACB"/>
	</linearGradient>
	<path style="fill:url(#SVGID_00000135650100020161126410000012846829343992896428_);" d="M330.5,67.31
		c12.46,1.98,28.85,8.26,31.3,14.09c3.75,9.63,5.56,20.65,5.56,30.21c0,40.03-40.04,56.69-40.04,56.69s18.35-17.59,18.35-48.71
		S330.72,67.81,330.5,67.31z"/>
	
		<linearGradient id="SVGID_00000049924350443619283780000016147571734930271414_" gradientUnits="userSpaceOnUse" x1="267.4763" y1="91.6312" x2="350.7625" y2="141.9246">
		<stop  offset="0" style="stop-color:#B035B3"/>
		<stop  offset="0.2409" style="stop-color:#9447BA"/>
		<stop  offset="0.7574" style="stop-color:#4E75CB"/>
		<stop  offset="1" style="stop-color:#2B8CD4"/>
	</linearGradient>
	<path style="fill:url(#SVGID_00000049924350443619283780000016147571734930271414_);" d="M330.5,67.31
		c-14.94-2.17-38.15-0.77-52.69,9.92c3.46-0.6,6.57-0.99,10.13-0.99c19.79,0,41.2,14.28,41.2,36.76c0,22.48-20.07,36.23-40.37,36.23
		c-19.28,0-27.84-12.6-31.4-21.11c0.58,15.5,25.94,44.31,52.87,44.31c4.99,0,10.95-1.42,17.08-4.15
		c14.99-11.44,23.98-26.9,23.98-48.35C351.3,93.33,337.85,74.48,330.5,67.31z"/>
	
		<linearGradient id="SVGID_00000183232268715969986280000001694298681231421845_" gradientUnits="userSpaceOnUse" x1="286.0412" y1="149.8123" x2="340.9882" y2="118.7553">
		<stop  offset="0" style="stop-color:#7752BE"/>
		<stop  offset="0.0708" style="stop-color:#6951BA"/>
		<stop  offset="0.2197" style="stop-color:#5150B3"/>
		<stop  offset="0.3582" style="stop-color:#434FAF"/>
		<stop  offset="0.4754" style="stop-color:#3E4FAE"/>
		<stop  offset="1" style="stop-color:#2A3DA7"/>
	</linearGradient>
	<path style="fill:url(#SVGID_00000183232268715969986280000001694298681231421845_);" d="M311.11,151.1
		c13.04-5.82,17.71-18.78,18.76-29.4c0.47-4.76-0.6-10.96-0.86-11.78c1.21,25.92-20.51,39.32-40.22,39.32
		c-4.75,0-8.85-0.77-12.39-2.05C281.25,150.06,295.28,157.91,311.11,151.1z"/>
	
		<linearGradient id="SVGID_00000178177367830931989210000005692643657558651578_" gradientUnits="userSpaceOnUse" x1="219.578" y1="65.6278" x2="361.2684" y2="65.6129">
		<stop  offset="0" style="stop-color:#FF45BA"/>
		<stop  offset="0.1509" style="stop-color:#FC62C3"/>
		<stop  offset="0.2374" style="stop-color:#FB6DC6"/>
		<stop  offset="0.3331" style="stop-color:#F967C4"/>
		<stop  offset="0.4592" style="stop-color:#F457BF"/>
		<stop  offset="0.5195" style="stop-color:#F14CBB"/>
		<stop  offset="0.6526" style="stop-color:#DD45B6"/>
		<stop  offset="0.7011" style="stop-color:#D542B4"/>
		<stop  offset="0.8202" style="stop-color:#B43DB6"/>
		<stop  offset="0.8602" style="stop-color:#8F4EBA"/>
		<stop  offset="0.9078" style="stop-color:#6761BE"/>
		<stop  offset="1" style="stop-color:#4F71C4"/>
	</linearGradient>
	<path style="fill:url(#SVGID_00000178177367830931989210000005692643657558651578_);" d="M221.36,92.65
		c0,0,11.64-11.72,27.78-24.89c6.95-5.67,20.27-16.74,34.42-21.47c19.74-6.52,32.9-3.27,42.01,0.41c17.33,7,29.16,18.45,36.27,34.79
		c-6.32-16.23-24.8-42.9-63.67-42.9c-34.33,0.32-56.54,26.16-62.53,31.36c-5.82,5.58-22.03,22.7-22.03,22.7H221.36z"/>
</g>
<g id="X">
	<g>
		<polygon class="st0" points="191.3,114.09 168.6,92.65 138.04,92.65 160.97,114.09 		"/>
		<polygon class="st0" points="222.25,143.33 192.25,143.33 215.67,165.24 245.44,165.24 		"/>
	</g>
	<polygon class="st0" points="137.63,165.33 169.48,165.33 245.45,92.65 213.6,92.65 	"/>
</g>
</svg>
