<?xml version="1.0" encoding="UTF-8"?><svg id="a" xmlns="http://www.w3.org/2000/svg" viewBox="0 0 419.34 80"><path d="M28.77,30.39l-26.03.65s-.05.09-.08.13l27.1.68c-.3-.51-.63-.99-.98-1.46Z"/><path d="M29.93,32.14l-28.22.71s-.03.06-.04.08l29.02.73c-.23-.52-.48-1.02-.76-1.52Z"/><path d="M25.2,26.93l-19.04.48c-.13.1-.26.19-.39.3l21.04.53c-.51-.47-1.04-.9-1.6-1.3Z"/><path d="M16,24c-1.09,0-2.16.11-3.19.32l7.09.18c-1.25-.31-2.55-.5-3.89-.5Z"/><path d="M22.14,25.22l-12.97.32c-.3.14-.6.28-.88.44l16.09.4c-.71-.44-1.46-.84-2.24-1.16Z"/><path d="M27.28,28.65l-23.08.58c-.06.07-.13.14-.19.2l24.51.61c-.39-.49-.8-.96-1.24-1.39Z"/><path d="M30.79,33.9l-29.85.75s-.01.03-.02.05l30.41.76c-.16-.53-.34-1.05-.55-1.55Z"/><path d="M31.39,35.66l-30.98.77s0,.01,0,.02l31.34.78c-.09-.54-.21-1.06-.36-1.58Z"/><path d="M31.77,37.43L.1,38.22s0,0,0,0l31.85.8c-.03-.54-.09-1.07-.18-1.59Z"/><path d="M30.69,46.34l-29.02.73s.03.06.04.08l28.22.71c.28-.49.53-.99.76-1.52Z"/><path d="M0,40l31.96.8c.01-.27.04-.53.04-.8s-.03-.53-.04-.8l-31.96.8Z"/><path d="M31.33,44.55l-30.41.76s.01.03.02.05l29.85.75c.21-.5.39-1.02.55-1.55Z"/><path d="M31.75,42.76l-31.34.78s0,.01,0,.02l30.98.77c.15-.52.26-1.04.36-1.58Z"/><path d="M16,56c1.35,0,2.65-.18,3.89-.5l-7.09.18c1.03.21,2.1.32,3.19.32Z"/><path d="M.1,41.78l31.67.79c.08-.52.14-1.05.18-1.59L.1,41.78s0,0,0,0Z"/><path d="M6.16,52.6l19.04.48c.56-.4,1.1-.83,1.6-1.3l-21.04.53c.13.1.26.2.39.3Z"/><path d="M29.75,48.15l-27.1.68s.05.09.08.13l26.03.65c.35-.47.68-.96.98-1.46Z"/><path d="M4.19,50.77l23.08.58c.44-.44.85-.91,1.24-1.39l-24.51.61c.06.07.12.14.19.21Z"/><path d="M8.28,54.02c.29.16.59.3.88.44l12.97.32c.78-.33,1.53-.72,2.24-1.16l-16.09.4Z"/><path d="M51.23,49.61l26.03-.65s.05-.09.08-.13l-27.1-.68c.3.51.63.99.98,1.46Z"/><path d="M50.07,47.86l28.22-.71s.03-.06.04-.08l-29.02-.73c.23.52.48,1.02.76,1.52Z"/><path d="M54.8,53.07l19.04-.48c.13-.1.26-.19.39-.3l-21.04-.53c.51.47,1.04.9,1.6,1.3Z"/><path d="M64,56c1.09,0,2.16-.11,3.19-.32l-7.09-.18c1.25.31,2.55.5,3.89.5Z"/><path d="M57.86,54.78l12.97-.32c.3-.14.6-.28.88-.44l-16.09-.4c.71.44,1.46.84,2.24,1.16Z"/><path d="M52.72,51.35l23.08-.58c.06-.07.13-.14.19-.2l-24.51-.61c.39.49.8.96,1.24,1.39Z"/><path d="M49.21,46.1l29.85-.75s.01-.03.02-.05l-30.41-.76c.16.53.34,1.05.55,1.55Z"/><path d="M48.61,44.34l30.98-.77s0-.01,0-.02l-31.34-.78c.09.54.21,1.06.36,1.58Z"/><path d="M48.23,42.57l31.67-.79s0,0,0,0l-31.85-.8c.03.54.09,1.07.18,1.59Z"/><path d="M49.31,33.66l29.02-.73s-.03-.06-.04-.08l-28.22-.71c-.28.49-.53.99-.76,1.52Z"/><path d="M48,40c0,.27.03.53.04.8l31.96-.8-31.96-.8c-.01.27-.04.53-.04.8Z"/><path d="M48.67,35.45l30.41-.76s-.01-.03-.02-.05l-29.85-.75c-.21.5-.39,1.02-.55,1.55Z"/><path d="M48.25,37.24l31.34-.78s0-.01,0-.02l-30.98-.77c-.15.52-.26,1.04-.36,1.58Z"/><path d="M64,24c-1.35,0-2.65.18-3.89.5l7.09-.18c-1.03-.21-2.1-.32-3.19-.32Z"/><path d="M79.9,38.22l-31.67-.79c-.08.52-.14,1.05-.18,1.59l31.85-.8s0,0,0,0Z"/><path d="M73.84,27.4l-19.04-.48c-.56.4-1.1.83-1.6,1.3l21.04-.53c-.13-.1-.26-.2-.39-.3Z"/><path d="M50.25,31.85l27.1-.68s-.05-.09-.08-.13l-26.03-.65c-.35.47-.68.96-.98,1.46Z"/><path d="M75.81,29.23l-23.08-.58c-.44.44-.85.91-1.24,1.39l24.51-.61c-.06-.07-.12-.14-.19-.21Z"/><path d="M71.72,25.98c-.29-.16-.59-.3-.88-.44l-12.97-.32c-.78.33-1.53.72-2.24,1.16l16.09-.4Z"/><path d="M48.96,2.74s-.09-.05-.13-.08l-.68,27.1c.51-.3.99-.63,1.46-.98l-.65-26.03Z"/><path d="M47.07,1.66l-.73,29.02c.52-.23,1.02-.48,1.52-.76l-.71-28.22s-.06-.03-.08-.04Z"/><path d="M52.6,6.16c-.1-.13-.19-.26-.3-.39l-.53,21.04c.47-.51.9-1.04,1.3-1.6l-.48-19.04Z"/><path d="M55.68,12.81l-.18,7.09c.31-1.25.5-2.55.5-3.89,0-1.09-.11-2.16-.32-3.19Z"/><path d="M54.45,9.17c-.14-.3-.28-.6-.44-.88l-.4,16.09c.44-.71.84-1.46,1.16-2.24l-.32-12.97Z"/><path d="M50.77,4.19c-.07-.06-.14-.13-.2-.19l-.61,24.51c.49-.39.96-.8,1.39-1.24l-.58-23.08Z"/><path d="M45.31.92l-.76,30.41c.53-.16,1.05-.34,1.55-.55l-.75-29.85s-.03-.01-.05-.02Z"/><path d="M43.55.41l-.78,31.34c.54-.09,1.06-.21,1.58-.36l-.77-30.98s-.01,0-.02,0Z"/><path d="M41.78.1l-.8,31.85c.54-.03,1.07-.09,1.59-.18L41.78.1s0,0,0,0Z"/><path d="M32.85,1.7l-.71,28.22c.49.28.99.53,1.52.76l-.73-29.02s-.06.03-.08.04Z"/><path d="M39.2,31.96c.27.01.53.04.8.04s.53-.03.8-.04l-.8-31.96-.8,31.96Z"/><path d="M34.64.94l-.75,29.85c.5.21,1.02.39,1.55.55l-.76-30.41s-.03.01-.05.02Z"/><path d="M36.43.41l-.77,30.98c.52.15,1.04.26,1.58.36l-.78-31.34s-.01,0-.02,0Z"/><path d="M24.32,12.81c-.21,1.03-.32,2.1-.32,3.19,0,1.35.18,2.65.5,3.89l-.18-7.09Z"/><path d="M38.22.1l-.79,31.67c.52.08,1.05.14,1.59.18L38.22.1s0,0,0,0Z"/><path d="M27.7,5.77c-.1.13-.2.26-.3.39l-.48,19.04c.4.56.83,1.1,1.3,1.6l-.53-21.04Z"/><path d="M31.18,2.66s-.09.05-.14.08l-.65,26.03c.47.35.96.68,1.46.98l-.68-27.1Z"/><path d="M29.43,4.01c-.07.06-.14.12-.21.19l-.58,23.08c.44.44.91.85,1.39,1.24l-.61-24.51Z"/><path d="M25.98,8.28c-.16.29-.3.59-.44.88l-.32,12.97c.33.78.72,1.53,1.16,2.24l-.4-16.09Z"/><path d="M31.04,77.26s.09.05.14.08l.68-27.1c-.51.3-.99.63-1.46.98l.65,26.03Z"/><path d="M32.85,78.3s.06.03.08.04l.73-29.02c-.52.23-1.02.48-1.52.76l.71,28.22Z"/><path d="M27.4,73.84c.1.13.19.26.3.39l.53-21.04c-.47.51-.9,1.04-1.3,1.6l.48,19.04Z"/><path d="M24.32,67.19l.18-7.09c-.31,1.25-.5,2.55-.5,3.89,0,1.09.11,2.16.32,3.19Z"/><path d="M25.55,70.83c.14.3.28.6.44.88l.4-16.09c-.44.71-.84,1.46-1.16,2.24l.32,12.97Z"/><path d="M29.23,75.81c.07.06.14.13.2.19l.61-24.51c-.49.39-.96.8-1.39,1.24l.58,23.08Z"/><path d="M34.64,79.06s.03.01.05.02l.76-30.41c-.53.16-1.05.34-1.55.55l.75,29.85Z"/><path d="M36.43,79.59s.01,0,.02,0l.78-31.34c-.54.09-1.06.21-1.58.36l.77,30.98Z"/><path d="M38.22,79.9s0,0,0,0l.8-31.85c-.54.03-1.07.09-1.59.18l.79,31.67Z"/><path d="M47.07,78.34s.06-.03.08-.04l.71-28.22c-.49-.28-.99-.53-1.52-.76l.73,29.02Z"/><path d="M39.2,48.04l.8,31.96.8-31.96c-.27-.01-.53-.04-.8-.04s-.53.03-.8.04Z"/><path d="M45.31,79.08s.03-.01.05-.02l.75-29.85c-.5-.21-1.02-.39-1.55-.55l.76,30.41Z"/><path d="M43.55,79.59s.01,0,.02,0l.77-30.98c-.52-.15-1.04-.26-1.58-.36l.78,31.34Z"/><path d="M55.68,67.19c.21-1.03.32-2.1.32-3.19,0-1.35-.18-2.65-.5-3.89l.18,7.09Z"/><path d="M41.78,79.9s0,0,0,0l.79-31.67c-.52-.08-1.05-.14-1.59-.18l.8,31.85Z"/><path d="M52.3,74.23c.1-.13.2-.26.3-.39l.48-19.04c-.4-.56-.83-1.1-1.3-1.6l.53,21.04Z"/><path d="M48.82,77.34s.09-.05.13-.08l.65-26.03c-.47-.35-.96-.68-1.46-.98l.68,27.1Z"/><path d="M50.57,75.99c.07-.06.14-.12.21-.19l.58-23.08c-.44-.44-.91-.85-1.39-1.24l.61,24.51Z"/><path d="M54.02,71.72c.16-.29.3-.59.44-.88l.32-12.97c-.33-.78-.72-1.53-1.16-2.24l.4,16.09Z"/><path d="M114.85,27.15c-2.17-1.17-4.76-1.75-7.75-1.75h-11.09v29.1h11.21c2.96,0,5.51-.58,7.68-1.74,2.16-1.16,3.83-2.83,5.01-5,1.18-2.17,1.77-4.77,1.77-7.79s-.59-5.64-1.78-7.81c-1.19-2.17-2.86-3.84-5.04-5.01ZM112.93,44.7c-.53,1.14-1.31,1.94-2.33,2.39-1.02.46-2.26.68-3.7.68h-3.01v-15.66h2.77c1.52,0,2.81.23,3.86.69,1.05.46,1.85,1.26,2.39,2.4.55,1.14.82,2.72.82,4.76s-.27,3.6-.8,4.74Z"/><path d="M141.63,33.81c-1.68-.94-3.7-1.42-6.07-1.42s-4.4.47-6.09,1.42c-1.69.94-2.99,2.26-3.88,3.95-.89,1.69-1.34,3.65-1.34,5.89s.45,4.2,1.34,5.89c.89,1.69,2.18,3,3.88,3.95,1.69.94,3.72,1.42,6.09,1.42s4.39-.47,6.07-1.42c1.68-.94,2.97-2.26,3.86-3.95.89-1.69,1.34-3.65,1.34-5.89s-.45-4.2-1.34-5.89c-.89-1.69-2.18-3-3.86-3.95ZM138.42,46.52c-.26.81-.63,1.44-1.12,1.87s-1.07.64-1.75.64-1.28-.21-1.78-.64c-.5-.43-.87-1.05-1.13-1.87-.26-.81-.39-1.79-.39-2.92s.13-2.12.39-2.91c.26-.79.64-1.4,1.13-1.82.49-.42,1.09-.62,1.78-.62s1.26.21,1.75.62c.49.42.86,1.02,1.12,1.82.26.79.39,1.76.39,2.91s-.13,2.11-.39,2.92Z"/><path d="M168.24,33.54c-1.3-.77-2.67-1.15-4.11-1.15-1.08,0-2.03.19-2.84.56-.81.37-1.49.87-2.04,1.49s-.96,1.31-1.25,2.05h-.2v-3.83h-7.77v30h7.85v-11.76h.12c.3.74.73,1.4,1.29,1.98.56.58,1.24,1.04,2.04,1.38s1.71.51,2.72.51c1.56,0,2.99-.41,4.3-1.22,1.3-.81,2.34-2.05,3.12-3.7.78-1.65,1.17-3.74,1.17-6.25,0-2.64-.41-4.79-1.23-6.44-.82-1.65-1.88-2.85-3.17-3.62ZM164.15,46.37c-.27.77-.65,1.37-1.15,1.78-.5.41-1.12.62-1.85.62s-1.33-.21-1.86-.63c-.52-.42-.92-1.02-1.2-1.79-.28-.77-.42-1.68-.42-2.73s.14-2.01.42-2.78c.28-.77.68-1.37,1.2-1.79.52-.42,1.14-.62,1.86-.62s1.34.21,1.85.62c.5.42.89,1.01,1.15,1.79.27.77.4,1.7.4,2.78s-.13,1.99-.4,2.76Z"/><path d="M194.06,33.54c-1.3-.77-2.67-1.15-4.11-1.15-1.08,0-2.03.19-2.84.56-.81.37-1.49.87-2.04,1.49s-.96,1.31-1.25,2.05h-.2v-3.83h-7.77v30h7.85v-11.76h.12c.3.74.73,1.4,1.29,1.98.56.58,1.24,1.04,2.04,1.38s1.71.51,2.72.51c1.56,0,2.99-.41,4.3-1.22,1.3-.81,2.34-2.05,3.12-3.7.78-1.65,1.17-3.74,1.17-6.25,0-2.64-.41-4.79-1.23-6.44-.82-1.65-1.88-2.85-3.17-3.62ZM189.98,46.37c-.27.77-.65,1.37-1.15,1.78-.5.41-1.12.62-1.85.62s-1.33-.21-1.86-.63c-.52-.42-.92-1.02-1.2-1.79-.28-.77-.42-1.68-.42-2.73s.14-2.01.42-2.78c.28-.77.68-1.37,1.2-1.79.52-.42,1.14-.62,1.86-.62s1.34.21,1.85.62c.5.42.89,1.01,1.15,1.79.27.77.4,1.7.4,2.78s-.13,1.99-.4,2.76Z"/><rect x="201.66" y="25.4" width="7.85" height="29.1"/><path d="M231.68,35.39c-.95-.97-2.09-1.71-3.43-2.23-1.33-.51-2.83-.77-4.48-.77-2.25,0-4.21.47-5.86,1.41-1.65.94-2.93,2.25-3.84,3.94-.91,1.69-1.36,3.66-1.36,5.91s.45,4.38,1.35,6.05,2.19,2.97,3.88,3.86c1.69.89,3.69,1.34,6.03,1.34,1.86,0,3.5-.26,4.91-.78,1.41-.52,2.58-1.26,3.51-2.22.92-.96,1.57-2.09,1.93-3.39l-6.91-1.02c-.16.4-.39.75-.7,1.03-.31.28-.69.5-1.12.64-.44.15-.92.22-1.46.22-.74,0-1.39-.15-1.95-.46-.56-.31-.99-.77-1.3-1.41-.28-.57-.42-1.28-.45-2.12h14.21v-1.8c0-1.74-.25-3.31-.76-4.69-.51-1.38-1.24-2.56-2.19-3.53ZM220.49,41.1c.06-.5.15-.95.32-1.34.26-.61.64-1.07,1.15-1.39.51-.32,1.14-.48,1.89-.48s1.39.16,1.89.48c.51.32.89.78,1.15,1.39.16.38.26.84.32,1.34h-6.73Z"/><path d="M250.53,32.39c-1.16,0-2.17.35-3.04,1.06-.87.71-1.49,1.84-1.88,3.39h-.23v-4.18h-7.62v21.84h7.85v-11.37c0-.83.17-1.56.52-2.18.34-.62.82-1.1,1.44-1.45.61-.34,1.3-.52,2.07-.52.4,0,.89.03,1.46.09s1.04.16,1.44.3v-6.68c-.31-.1-.64-.18-.98-.23-.34-.05-.68-.08-1.02-.08Z"/><polygon points="262.95 54.5 270.84 54.5 270.84 44.54 282.17 44.54 282.17 38.33 270.84 38.33 270.84 31.77 283.42 31.77 283.42 25.4 262.95 25.4 262.95 54.5"/><path d="M290.34,30.44c1.07,0,1.98-.35,2.73-1.05.75-.7,1.13-1.55,1.13-2.54s-.38-1.85-1.13-2.55c-.76-.7-1.67-1.04-2.73-1.04s-1.98.35-2.73,1.04c-.76.7-1.13,1.55-1.13,2.55s.38,1.84,1.13,2.54c.75.7,1.67,1.05,2.73,1.05Z"/><rect x="286.43" y="32.66" width="7.85" height="21.84"/><path d="M316.67,33.45c-1.14-.7-2.48-1.05-4.03-1.05-2.01,0-3.56.56-4.68,1.69-.97.98-1.69,2.18-2.19,3.57l-.14-4.98h-7.36v21.84h7.85v-12.27c0-.73.13-1.35.39-1.87.26-.51.63-.91,1.1-1.19.48-.28,1.03-.42,1.67-.42.99,0,1.76.31,2.3.93.55.62.82,1.47.82,2.55v12.27h7.85v-13.91c0-1.59-.31-3-.94-4.24-.62-1.24-1.51-2.21-2.65-2.91Z"/><path d="M341.36,34.46c-.89-.65-1.97-1.16-3.22-1.52-1.26-.36-2.66-.55-4.21-.55-2.04,0-3.78.3-5.21.9-1.43.6-2.54,1.4-3.35,2.4-.81,1-1.32,2.12-1.52,3.34l7.07.7c.09-.44.27-.81.54-1.09.27-.29.6-.5,1.01-.64.4-.14.85-.21,1.35-.21s.94.07,1.31.21c.36.14.65.34.85.6.2.26.3.58.3.96v.08c0,.42-.17.75-.5,1.01s-.87.45-1.6.58c-.74.13-1.72.24-2.94.33-1.13.08-2.18.26-3.15.56-.97.29-1.82.71-2.55,1.25-.73.54-1.3,1.23-1.7,2.08-.4.85-.61,1.87-.61,3.07,0,1.45.3,2.64.9,3.57.6.94,1.44,1.64,2.51,2.1s2.31.69,3.7.69c.95,0,1.82-.12,2.6-.35s1.48-.6,2.1-1.1c.62-.5,1.15-1.16,1.59-1.98h.16v3.09h7.34v-14.96c0-1-.24-1.94-.71-2.8-.48-.87-1.16-1.62-2.05-2.28ZM336.35,46.77c0,.66-.17,1.23-.5,1.69-.33.46-.76.82-1.29,1.06-.53.25-1.09.37-1.69.37-.44,0-.83-.07-1.17-.21-.34-.14-.61-.35-.8-.63-.2-.28-.29-.62-.29-1.03,0-.38.09-.72.27-1.03.18-.31.47-.57.85-.78.38-.21.88-.37,1.49-.46.31-.05.61-.1.89-.16.28-.05.55-.11.82-.18.27-.06.52-.14.75-.21s.46-.16.66-.23v1.8Z"/><path d="M366.52,33.45c-1.14-.7-2.48-1.05-4.03-1.05-2.01,0-3.56.56-4.68,1.69-.97.98-1.69,2.18-2.19,3.57l-.14-4.98h-7.36v21.84h7.85v-12.27c0-.73.13-1.35.39-1.87.26-.51.63-.91,1.1-1.19.48-.28,1.03-.42,1.67-.42.99,0,1.76.31,2.3.93.55.62.82,1.47.82,2.55v12.27h7.85v-13.91c0-1.59-.31-3-.94-4.24-.62-1.24-1.51-2.21-2.65-2.91Z"/><path d="M382.91,38.84c.51-.39,1.11-.59,1.8-.59.43,0,.82.08,1.16.22.34.15.65.37.91.67.26.3.48.67.65,1.1.18.44.31.94.4,1.51l7.21-1.07c-.13-1.26-.46-2.41-1-3.43-.53-1.02-1.25-1.89-2.16-2.62-.91-.72-1.97-1.28-3.19-1.67-1.22-.39-2.59-.59-4.1-.59-2.37,0-4.4.47-6.08,1.42-1.69.94-2.98,2.26-3.87,3.95-.89,1.69-1.34,3.65-1.34,5.89s.45,4.2,1.34,5.89c.89,1.69,2.18,3,3.87,3.95,1.69.94,3.71,1.42,6.08,1.42,1.51,0,2.88-.2,4.11-.59s2.29-.95,3.19-1.69c.9-.74,1.61-1.62,2.15-2.66.53-1.04.87-2.2,1-3.51l-7.21-1.05c-.08.59-.21,1.11-.38,1.56-.18.46-.4.84-.66,1.14-.27.31-.57.54-.92.69-.35.16-.73.23-1.16.23-.69,0-1.29-.21-1.8-.62s-.9-1.02-1.18-1.83c-.28-.81-.42-1.8-.42-2.99s.14-2.19.42-2.99c.28-.79.67-1.39,1.18-1.78Z"/><path d="M419.34,43.6c0-1.74-.25-3.31-.76-4.69-.51-1.38-1.24-2.56-2.19-3.53-.95-.97-2.09-1.71-3.43-2.23-1.33-.51-2.83-.77-4.48-.77-2.25,0-4.21.47-5.86,1.41-1.65.94-2.93,2.25-3.84,3.94-.91,1.69-1.36,3.66-1.36,5.91s.45,4.38,1.35,6.05,2.19,2.97,3.88,3.86c1.69.89,3.69,1.34,6.03,1.34,1.86,0,3.5-.26,4.91-.78,1.41-.52,2.58-1.26,3.51-2.22.92-.96,1.57-2.09,1.93-3.39l-6.91-1.02c-.16.4-.39.75-.7,1.03-.31.28-.69.5-1.12.64-.44.15-.92.22-1.46.22-.74,0-1.39-.15-1.95-.46-.56-.31-.99-.77-1.3-1.41-.28-.57-.42-1.28-.45-2.12h14.21v-1.8ZM405.19,41.1c.06-.5.15-.95.32-1.34.26-.61.64-1.07,1.15-1.39.51-.32,1.14-.48,1.89-.48s1.39.16,1.89.48c.51.32.89.78,1.15,1.39.16.38.26.84.32,1.34h-6.73Z"/></svg>