<?xml version="1.0" encoding="UTF-8"?><svg id="a" xmlns="http://www.w3.org/2000/svg" viewBox="0 0 252.52 80"><path d="M2.74,31.04s-.05.09-.08.13l27.1.68c-.3-.51-.63-.99-.98-1.46l-26.03.65Z"/><path d="M1.7,32.85s-.03.06-.04.08l29.02.73c-.23-.52-.48-1.02-.76-1.52l-28.22.71Z"/><path d="M6.16,27.4c-.13.1-.26.19-.39.3l21.04.53c-.51-.47-1.04-.9-1.6-1.3l-19.04.48Z"/><path d="M19.89,24.5c-1.25-.31-2.55-.5-3.89-.5-1.09,0-2.16.11-3.19.32l7.09.18Z"/><path d="M9.17,25.55c-.3.14-.6.28-.88.44l16.09.4c-.71-.44-1.46-.84-2.24-1.16l-12.97.32Z"/><path d="M4.01,29.43l24.51.61c-.39-.49-.8-.96-1.24-1.39l-23.08.58c-.06.07-.13.14-.19.2Z"/><path d="M.94,34.64s-.01.03-.02.05l30.41.76c-.16-.53-.34-1.05-.55-1.55l-29.85.75Z"/><path d="M.41,36.43s0,.01,0,.02l31.34.78c-.09-.54-.21-1.06-.36-1.58l-30.98.77Z"/><path d="M31.95,39.02c-.03-.54-.09-1.07-.18-1.59L.1,38.22s0,0,0,0l31.85.8Z"/><path d="M1.66,47.07s.03.06.04.08l28.22.71c.28-.49.53-.99.76-1.52l-29.02.73Z"/><path d="M32,40c0-.27-.03-.53-.04-.8l-31.96.8,31.96.8c.01-.27.04-.53.04-.8Z"/><path d="M.92,45.31s.01.03.02.05l29.85.75c.21-.5.39-1.02.55-1.55l-30.41.76Z"/><path d="M.41,43.55s0,.01,0,.02l30.98.77c.15-.52.26-1.04.36-1.58l-31.34.78Z"/><path d="M12.81,55.68c1.03.21,2.1.32,3.19.32,1.35,0,2.65-.18,3.89-.5l-7.09.18Z"/><path d="M.1,41.78s0,0,0,0l31.67.79c.08-.52.14-1.05.18-1.59L.1,41.78Z"/><path d="M5.77,52.3c.13.1.26.2.39.3l19.04.48c.56-.4,1.1-.83,1.6-1.3l-21.04.53Z"/><path d="M2.66,48.82s.05.09.08.13l26.03.65c.35-.47.68-.96.98-1.46l-27.1.68Z"/><path d="M4.01,50.57c.06.07.12.14.19.21l23.08.58c.44-.44.85-.91,1.24-1.39l-24.51.61Z"/><path d="M22.14,54.78c.78-.33,1.53-.72,2.24-1.16l-16.09.4c.29.16.59.3.88.44l12.97.32Z"/><path d="M77.26,48.96s.05-.09.08-.13l-27.1-.68c.3.51.63.99.98,1.46l26.03-.65Z"/><path d="M78.3,47.15s.03-.06.04-.08l-29.02-.73c.23.52.48,1.02.76,1.52l28.22-.71Z"/><path d="M73.84,52.6c.13-.1.26-.19.39-.3l-21.04-.53c.51.47,1.04.9,1.6,1.3l19.04-.48Z"/><path d="M60.11,55.5c1.25.31,2.55.5,3.89.5,1.09,0,2.16-.11,3.19-.32l-7.09-.18Z"/><path d="M70.83,54.45c.3-.14.6-.28.88-.44l-16.09-.4c.71.44,1.46.84,2.24,1.16l12.97-.32Z"/><path d="M75.99,50.57l-24.51-.61c.39.49.8.96,1.24,1.39l23.08-.58c.06-.07.13-.14.19-.2Z"/><path d="M79.06,45.36s.01-.03.02-.05l-30.41-.76c.16.53.34,1.05.55,1.55l29.85-.75Z"/><path d="M79.59,43.57s0-.01,0-.02l-31.34-.78c.09.54.21,1.06.36,1.58l30.98-.77Z"/><path d="M48.05,40.98c.03.54.09,1.07.18,1.59l31.67-.79s0,0,0,0l-31.85-.8Z"/><path d="M78.34,32.93s-.03-.06-.04-.08l-28.22-.71c-.28.49-.53.99-.76,1.52l29.02-.73Z"/><path d="M48,40c0,.27.03.53.04.8l31.96-.8-31.96-.8c-.01.27-.04.53-.04.8Z"/><path d="M79.08,34.69s-.01-.03-.02-.05l-29.85-.75c-.21.5-.39,1.02-.55,1.55l30.41-.76Z"/><path d="M79.59,36.45s0-.01,0-.02l-30.98-.77c-.15.52-.26,1.04-.36,1.58l31.34-.78Z"/><path d="M67.19,24.32c-1.03-.21-2.1-.32-3.19-.32-1.35,0-2.65.18-3.89.5l7.09-.18Z"/><path d="M79.9,38.22s0,0,0,0l-31.67-.79c-.08.52-.14,1.05-.18,1.59l31.85-.8Z"/><path d="M74.23,27.7c-.13-.1-.26-.2-.39-.3l-19.04-.48c-.56.4-1.1.83-1.6,1.3l21.04-.53Z"/><path d="M77.34,31.18s-.05-.09-.08-.13l-26.03-.65c-.35.47-.68.96-.98,1.46l27.1-.68Z"/><path d="M75.99,29.43c-.06-.07-.12-.14-.19-.21l-23.08-.58c-.44.44-.85.91-1.24,1.39l24.51-.61Z"/><path d="M57.86,25.22c-.78.33-1.53.72-2.24,1.16l16.09-.4c-.29-.16-.59-.3-.88-.44l-12.97-.32Z"/><path d="M48.96,2.74s-.09-.05-.13-.08l-.68,27.1c.51-.3.99-.63,1.46-.98l-.65-26.03Z"/><path d="M47.15,1.7s-.06-.03-.08-.04l-.73,29.02c.52-.23,1.02-.48,1.52-.76l-.71-28.22Z"/><path d="M52.6,6.16c-.1-.13-.19-.26-.3-.39l-.53,21.04c.47-.51.9-1.04,1.3-1.6l-.48-19.04Z"/><path d="M55.5,19.89c.31-1.25.5-2.55.5-3.89,0-1.09-.11-2.16-.32-3.19l-.18,7.09Z"/><path d="M54.45,9.17c-.14-.3-.28-.6-.44-.88l-.4,16.09c.44-.71.84-1.46,1.16-2.24l-.32-12.97Z"/><path d="M50.57,4.01l-.61,24.51c.49-.39.96-.8,1.39-1.24l-.58-23.08c-.07-.06-.14-.13-.2-.19Z"/><path d="M45.36.94s-.03-.01-.05-.02l-.76,30.41c.53-.16,1.05-.34,1.55-.55l-.75-29.85Z"/><path d="M43.57.41s-.01,0-.02,0l-.78,31.34c.54-.09,1.06-.21,1.58-.36l-.77-30.98Z"/><path d="M40.98,31.95c.54-.03,1.07-.09,1.59-.18L41.78.1s0,0,0,0l-.8,31.85Z"/><path d="M32.93,1.66s-.06.03-.08.04l-.71,28.22c.49.28.99.53,1.52.76l-.73-29.02Z"/><path d="M40,32c.27,0,.53-.03.8-.04l-.8-31.96-.8,31.96c.27.01.53.04.8.04Z"/><path d="M34.69.92s-.03.01-.05.02l-.75,29.85c.5.21,1.02.39,1.55.55l-.76-30.41Z"/><path d="M36.45.41s-.01,0-.02,0l-.77,30.98c.52.15,1.04.26,1.58.36l-.78-31.34Z"/><path d="M24.32,12.81c-.21,1.03-.32,2.1-.32,3.19,0,1.35.18,2.65.5,3.89l-.18-7.09Z"/><path d="M38.22.1s0,0,0,0l-.79,31.67c.52.08,1.05.14,1.59.18L38.22.1Z"/><path d="M27.7,5.77c-.1.13-.2.26-.3.39l-.48,19.04c.4.56.83,1.1,1.3,1.6l-.53-21.04Z"/><path d="M31.18,2.66s-.09.05-.13.08l-.65,26.03c.47.35.96.68,1.46.98l-.68-27.1Z"/><path d="M29.43,4.01c-.07.06-.14.12-.21.19l-.58,23.08c.44.44.91.85,1.39,1.24l-.61-24.51Z"/><path d="M25.22,22.14c.33.78.72,1.53,1.16,2.24l-.4-16.09c-.16.29-.3.59-.44.88l-.32,12.97Z"/><path d="M31.04,77.26s.09.05.13.08l.68-27.1c-.51.3-.99.63-1.46.98l.65,26.03Z"/><path d="M32.85,78.3s.06.03.08.04l.73-29.02c-.52.23-1.02.48-1.52.76l.71,28.22Z"/><path d="M27.4,73.84c.1.13.19.26.3.39l.53-21.04c-.47.51-.9,1.04-1.3,1.6l.48,19.04Z"/><path d="M24.5,60.11c-.31,1.25-.5,2.55-.5,3.89,0,1.09.11,2.16.32,3.19l.18-7.09Z"/><path d="M25.55,70.83c.14.3.28.6.44.88l.4-16.09c-.44.71-.84,1.46-1.16,2.24l.32,12.97Z"/><path d="M29.43,75.99l.61-24.51c-.49.39-.96.8-1.39,1.24l.58,23.08c.07.06.14.13.2.19Z"/><path d="M34.64,79.06s.03.01.05.02l.76-30.41c-.53.16-1.05.34-1.55.55l.75,29.85Z"/><path d="M36.43,79.59s.01,0,.02,0l.78-31.34c-.54.09-1.06.21-1.58.36l.77,30.98Z"/><path d="M39.02,48.05c-.54.03-1.07.09-1.59.18l.79,31.67s0,0,0,0l.8-31.85Z"/><path d="M47.07,78.34s.06-.03.08-.04l.71-28.22c-.49-.28-.99-.53-1.52-.76l.73,29.02Z"/><path d="M40,48c-.27,0-.53.03-.8.04l.8,31.96.8-31.96c-.27-.01-.53-.04-.8-.04Z"/><path d="M45.31,79.08s.03-.01.05-.02l.75-29.85c-.5-.21-1.02-.39-1.55-.55l.76,30.41Z"/><path d="M43.55,79.59s.01,0,.02,0l.77-30.98c-.52-.15-1.04-.26-1.58-.36l.78,31.34Z"/><path d="M55.68,67.19c.21-1.03.32-2.1.32-3.19,0-1.35-.18-2.65-.5-3.89l.18,7.09Z"/><path d="M41.78,79.9s0,0,0,0l.79-31.67c-.52-.08-1.05-.14-1.59-.18l.8,31.85Z"/><path d="M52.3,74.23c.1-.13.2-.26.3-.39l.48-19.04c-.4-.56-.83-1.1-1.3-1.6l.53,21.04Z"/><path d="M48.82,77.34s.09-.05.13-.08l.65-26.03c-.47-.35-.96-.68-1.46-.98l.68,27.1Z"/><path d="M50.57,75.99c.07-.06.14-.12.21-.19l.58-23.08c-.44-.44-.91-.85-1.39-1.24l.61,24.51Z"/><path d="M54.78,57.86c-.33-.78-.72-1.53-1.16-2.24l.4,16.09c.16-.29.3-.59.44-.88l.32-12.97Z"/><path d="M114.85,20.04c-2.17-1.17-4.76-1.75-7.75-1.75h-11.09v29.1h11.21c2.96,0,5.51-.58,7.68-1.74s3.83-2.83,5.01-5,1.77-4.77,1.77-7.79-.59-5.64-1.78-7.81-2.86-3.84-5.04-5.01ZM112.93,37.6c-.53,1.14-1.31,1.94-2.33,2.39s-2.26.68-3.7.68h-3.01v-15.66h2.77c1.52,0,2.81.23,3.86.69s1.85,1.26,2.39,2.4.82,2.72.82,4.76-.27,3.6-.8,4.74Z"/><path d="M141.63,26.7c-1.68-.94-3.7-1.42-6.07-1.42s-4.4.47-6.09,1.42-2.99,2.26-3.88,3.95-1.34,3.65-1.34,5.89.45,4.2,1.34,5.89,2.18,3,3.88,3.95,3.72,1.42,6.09,1.42,4.39-.47,6.07-1.42,2.97-2.26,3.86-3.95,1.34-3.65,1.34-5.89-.45-4.2-1.34-5.89-2.18-3-3.86-3.95ZM138.42,39.41c-.26.81-.63,1.44-1.12,1.87s-1.07.64-1.75.64-1.28-.21-1.78-.64-.87-1.05-1.13-1.87-.39-1.79-.39-2.92.13-2.12.39-2.91.64-1.4,1.13-1.82,1.09-.62,1.78-.62,1.26.21,1.75.62.86,1.02,1.12,1.82.39,1.76.39,2.91-.13,2.11-.39,2.92Z"/><path d="M168.24,26.44c-1.3-.77-2.67-1.15-4.11-1.15-1.08,0-2.03.19-2.84.56s-1.49.87-2.04,1.49-.96,1.31-1.25,2.05h-.2v-3.83h-7.77v30h7.85v-11.76h.12c.3.74.73,1.4,1.29,1.98s1.24,1.04,2.04,1.38,1.71.51,2.72.51c1.56,0,3-.41,4.3-1.22s2.34-2.05,3.12-3.7,1.17-3.74,1.17-6.25c0-2.64-.41-4.79-1.23-6.44s-1.88-2.85-3.17-3.62ZM164.15,39.26c-.27.77-.65,1.37-1.15,1.78s-1.12.62-1.85.62-1.33-.21-1.86-.63-.92-1.02-1.2-1.79-.42-1.68-.42-2.73.14-2.01.42-2.78.68-1.37,1.2-1.79,1.14-.62,1.86-.62,1.34.21,1.85.62.89,1.01,1.15,1.79.4,1.7.4,2.78-.13,1.99-.4,2.76Z"/><path d="M194.06,26.44c-1.3-.77-2.67-1.15-4.11-1.15-1.08,0-2.03.19-2.84.56s-1.49.87-2.04,1.49-.96,1.31-1.25,2.05h-.2v-3.83h-7.77v30h7.85v-11.76h.12c.3.74.73,1.4,1.29,1.98s1.24,1.04,2.04,1.38,1.71.51,2.72.51c1.56,0,3-.41,4.3-1.22s2.34-2.05,3.12-3.7,1.17-3.74,1.17-6.25c0-2.64-.41-4.79-1.23-6.44s-1.88-2.85-3.17-3.62ZM189.97,39.26c-.27.77-.65,1.37-1.15,1.78s-1.12.62-1.85.62-1.33-.21-1.86-.63-.92-1.02-1.2-1.79-.42-1.68-.42-2.73.14-2.01.42-2.78.68-1.37,1.2-1.79,1.14-.62,1.86-.62,1.34.21,1.85.62.89,1.01,1.15,1.79.4,1.7.4,2.78-.13,1.99-.4,2.76Z"/><rect x="201.66" y="18.29" width="7.85" height="29.1"/><path d="M231.68,28.28c-.95-.97-2.09-1.71-3.43-2.23s-2.83-.77-4.48-.77c-2.25,0-4.21.47-5.86,1.41s-2.93,2.25-3.84,3.94-1.36,3.66-1.36,5.91.45,4.38,1.35,6.05,2.19,2.97,3.88,3.86,3.69,1.34,6.03,1.34c1.86,0,3.5-.26,4.91-.78s2.58-1.26,3.51-2.22,1.57-2.09,1.93-3.39l-6.91-1.02c-.16.4-.39.75-.7,1.03s-.69.5-1.12.64-.92.22-1.46.22c-.74,0-1.39-.15-1.95-.46s-.99-.77-1.3-1.41c-.28-.57-.42-1.28-.45-2.12h14.21v-1.8c0-1.75-.25-3.31-.76-4.69s-1.24-2.56-2.19-3.53ZM221.96,31.27c.51-.32,1.14-.48,1.89-.48s1.39.16,1.89.48.89.78,1.15,1.39c.16.38.26.84.32,1.34h-6.73c.06-.5.15-.95.32-1.34.26-.61.64-1.07,1.15-1.39Z"/><path d="M251.55,25.36c-.34-.05-.68-.08-1.02-.08-1.16,0-2.17.35-3.04,1.06s-1.49,1.84-1.88,3.39h-.23v-4.18h-7.62v21.84h7.85v-11.37c0-.83.17-1.56.52-2.18s.82-1.1,1.44-1.45,1.3-.52,2.07-.52c.4,0,.89.03,1.46.09s1.04.16,1.44.3v-6.68c-.31-.1-.64-.18-.98-.23Z"/><polygon points="191.1 64.61 192.66 64.61 192.66 60.37 196.98 60.37 196.98 59.04 192.66 59.04 192.66 55.76 197.44 55.76 197.44 54.42 191.1 54.42 191.1 64.61"/><rect x="199.35" y="54.42" width="1.56" height="10.19"/><path d="M209.92,60.22c0,.23,0,.51.01.84s.02.69.04,1.07c.01.22.03.43.05.65-.1-.21-.2-.44-.29-.64-.18-.35-.35-.66-.51-.94s-.3-.52-.43-.72l-3.83-6.06h-1.8v10.19h1.58v-5.43c0-.2,0-.47-.02-.8-.01-.33-.03-.72-.05-1.15-.01-.28-.03-.6-.04-.9.19.35.36.67.5.94.21.39.41.74.58,1.04.17.3.35.6.54.9l3.44,5.42h1.8v-10.19h-1.58v5.8Z"/><path d="M216.6,54.42l-3.62,10.19h1.69l.91-2.69h4l.94,2.69h1.69l-3.69-10.19h-1.91ZM219.12,60.62h-3.11l.57-1.68c.14-.44.3-.97.49-1.6.14-.48.3-1.07.47-1.7.17.62.34,1.2.48,1.68.19.62.35,1.17.51,1.63l.59,1.68Z"/><path d="M230.43,60.22c0,.23,0,.51.01.84s.02.69.04,1.07c.01.22.03.43.05.65-.1-.21-.2-.44-.29-.64-.18-.35-.35-.66-.51-.94s-.3-.52-.43-.72l-3.83-6.06h-1.8v10.19h1.58v-5.43c0-.2,0-.47-.02-.8-.01-.33-.03-.72-.05-1.15-.01-.28-.03-.6-.04-.9.19.35.36.67.5.94.21.39.41.74.58,1.04.17.3.35.6.54.9l3.44,5.42h1.8v-10.19h-1.58v5.8Z"/><path d="M240.79,62.17c-.16.25-.36.46-.59.63-.24.17-.5.3-.78.39-.29.09-.59.13-.91.13-.58,0-1.1-.14-1.56-.43-.46-.29-.83-.72-1.09-1.29-.27-.57-.4-1.26-.4-2.08s.13-1.51.4-2.08c.26-.57.63-1,1.09-1.29.46-.29.99-.44,1.57-.44.32,0,.62.04.91.13s.55.22.78.39.43.38.59.63c.16.25.28.53.34.86h1.57c-.09-.54-.25-1.02-.5-1.44-.24-.42-.55-.78-.92-1.08-.37-.3-.79-.52-1.27-.68-.47-.16-.98-.23-1.51-.23-.88,0-1.67.21-2.36.63s-1.24,1.02-1.63,1.8c-.4.78-.59,1.72-.59,2.81s.2,2.02.59,2.8c.4.78.94,1.38,1.63,1.8.69.42,1.48.62,2.36.62.56,0,1.08-.08,1.55-.25.48-.17.9-.4,1.27-.71s.67-.67.91-1.09c.24-.42.39-.88.47-1.38h-1.57c-.06.32-.18.6-.34.85Z"/><polygon points="246.09 63.27 246.09 60.13 250.6 60.13 250.6 58.8 246.09 58.8 246.09 55.76 250.95 55.76 250.95 54.42 244.54 54.42 244.54 64.61 250.99 64.61 250.99 63.27 246.09 63.27"/></svg>